<?xml version="1.0" encoding="utf-8"?>
<!-- Generator: Adobe Illustrator 16.0.0, SVG Export Plug-In . SVG Version: 6.00 Build 0)  -->
<!DOCTYPE svg PUBLIC "-//W3C//DTD SVG 1.1//EN" "http://www.w3.org/Graphics/SVG/1.1/DTD/svg11.dtd">
<svg version="1.1" id="Layer_1" xmlns="http://www.w3.org/2000/svg" xmlns:xlink="http://www.w3.org/1999/xlink" x="0px" y="0px"
	 width="512px" height="512px" viewBox="0 0 512 512" enable-background="new 0 0 512 512" xml:space="preserve">
<g transform="translate(0.000000,512.000000) scale(0.100000,-0.100000)">
	<path fill="#0164A9" d="M1996,4190c-16.001-5-40-18.999-53.003-32.002c-50.996-46.997-53.999-65-51.997-263.999l1.001-183.999
		L1831,3632.001c-65-82.002-127.002-198.003-160-299.004c-32.002-98.999-43.003-207.998-38.999-375
		C1635,2806,1636,2802.998,1665,2753.999c37.998-61.001,107.002-105,173.999-111.997l48.003-4.004l15.996-75
		c34.004-153.994,131.001-302.002,261.001-397.002l68.003-50l-4.004-82.998c-3.999-113.994-10-118.994-212.998-178.994
		c-87.998-26.006-180-56.006-205-68.008c-57.998-26.992-120-88.994-151.001-150.996c-23.999-49.004-23.999-54.004-26.997-360.996
		l-3.003-312.002L1656,940.996c30-23.994,42.998-25.996,76.997-10C1777.001,950.996,1780,975,1780,1260
		c0,165,3.999,280,11.001,297.002C1812.998,1615,1858.999,1649.004,1960,1680l95,30l25-20
		c105-82.998,247.998-142.998,392.002-162.002c182.998-23.994,387.998,30,537.002,142.998l51.992,40l87.002-26.992
		c102.002-30,147.002-61.006,172.998-118.008c17.002-36.992,19.004-68.994,19.004-316.992c0-307.002,0.996-312.002,67.002-325
		c25.996-5,37.002-1.006,57.998,20L3490.996,970l-2.998,302.998c-2.998,291.006-3.994,304.004-25.996,352.002
		c-29.004,62.002-92.998,129.004-152.002,159.004c-25,12.998-117.002,43.994-205,70c-204.004,60-215,70-215,185v78.994
		l67.002,47.998c127.002,94.004,227.002,245,260,396.006l15.996,75.996l47.998,4.004c67.002,6.997,136.006,50.996,174.004,111.997
		c30,48.999,30,52.002,32.998,207.002c4.004,181.997-5.996,265-50,396.997c-32.002,97.002-105.996,227.002-173.994,305
		L3227.001,3705l2.002,187.002c1.992,207.998-2.002,225.996-62.002,271.997c-19.004,15-52.998,28.003-77.998,31.001
		c-40,5-68.008-5-287.002-98.999l-243.003-103.999L2317.001,4096c-133.003,56.997-253.003,102.998-267.002,102.998
		S2012.001,4193.999,1996,4190z M2242.998,3965c64.004-27.002,117.002-52.002,117.002-55S2302.001,3881,2232.001,3851
		s-142.002-60-159.004-68.003L2040,3770v140v140l42.998-17.998C2106,4022.998,2177.998,3992.998,2242.998,3965z M3080,3910v-140
		l-32.002,12.998c-17.998,8.003-90,38.003-160,68.003S2760,3907.001,2760,3910c0,5,295.996,136.001,312.998,138.999
		C3077.001,4048.999,3080,3987.001,3080,3910z M2787.998,3731C2914.003,3676,3035,3627.998,3055.996,3625
		c23.008-3.999,53.008-21.001,73.008-38.999c50.996-47.002,125.996-167.002,158.994-253.999
		c27.002-70,57.998-209.004,49.004-218.003c-2.002-1.997-19.004,1.001-37.998,6.001c-18.008,6.001-62.002,10-97.002,10
		c-85,0-117.998,17.998-132.998,72.998c-6.006,23.003-13.008,47.002-15,54.004c-1.006,5.996-13.008,17.998-26.006,26.997
		C3007.001,3297.001,2170,3470,2126,3470c-11.001,0-30-10-43.003-22.002c-20.996-20-22.998-30-22.998-125
		c0-167.998-17.002-187.998-165-195.996C1851,3125,1807.001,3118.999,1796,3115c-17.002-7.998-18.003-5-12.002,38.999
		c23.003,148.003,93.999,307.002,181.001,403.999c43.999,48.003,62.002,61.001,93.999,66.001
		c21.001,3.003,142.002,51.001,268.003,105c125,55,228.999,100,230,100C2557.998,3830,2662.001,3785,2787.998,3731z M2550,3235
		c179.004-35,335-67.002,347.002-70c12.998-2.998,30-22.998,42.998-50c42.002-87.002,125-133.999,237.002-135
		c38.994,0,82.998-3.999,95.996-8.999C3340,2945,3360,2875,3315,2822.001c-22.998-28.003-30.996-30-105-34.004
		c-105-3.999-117.002-15.996-130-123.999c-15-136.001-60.996-233.003-155-326.001C2825,2239.004,2705,2190,2560,2190
		s-267.998,50.996-368.999,152.002C2101,2432.002,2055,2530,2040,2663.999c-12.998,108.003-25,120-130,123.999
		c-73.999,4.004-82.002,6.001-105,34.004C1760,2875,1780,2945,1847.001,2971C1860,2976,1903.999,2980,1945,2980
		c60,0,82.002,5,126.001,27.998C2162.001,3055,2210,3142.998,2210,3260c0,22.002,3.999,40,7.998,40
		C2222.001,3300,2372.001,3271,2550,3235z M2560,2045c62.998,0,130,2.998,147.998,7.002L2740,2060v-47.998
		c0-99.004,42.998-182.998,120-234.004l25-15.996l-65-30c-100-46.006-145.996-56.006-260-56.006c-112.998,0-185,16.006-272.998,60
		l-48.003,25l48.999,44.004c57.002,52.002,81.001,102.002,89.004,190.996l5.996,63.008l31.001-7.002
		C2431,2047.998,2497.001,2045,2560,2045z"/>
	<path fill="#73BF43" d="M2280,2952.998c-51.001-18.999-67.998-85-30-122.998c30-30,82.998-27.002,108.999,6.001
		c12.002,15,21.001,32.998,21.001,40c0,26.001-22.998,61.997-47.002,72.998C2307.001,2961,2302.998,2961,2280,2952.998z"/>
	<path fill="#73BF43" d="M2785,2948.999c-49.004-27.998-57.998-70-24.004-112.998c40-51.001,129.004-20,129.004,46.001
		C2890,2933.999,2827.998,2972.998,2785,2948.999z"/>
	<path fill="#73BF43" d="M2363.999,2588.999c-26.997-8.999-53.999-46.997-53.999-73.003c0-30,72.998-91.992,137.002-115.996
		c102.998-39.004,237.002-15.996,320.996,54.004c26.006,21.992,32.002,35,32.002,65c0,72.998-64.004,94.995-135,46.997
		c-65-43.999-147.002-46.997-203.999-7.002C2420,2588.999,2387.998,2598.999,2363.999,2588.999z"/>
	<path fill="#0164A9" d="M4095,3977.998c-182.002-13.999-365-92.998-520.996-223.999c-59.004-48.999-71.006-81.001-50-122.998
		c28.994-56.001,67.998-55,140.996,3.999C3835,3773.999,3985.996,3831,4184.003,3831c120.996,0,223.994-21.001,323.994-67.002
		C4712.998,3670,4855.996,3511,4932.001,3290l32.998-95l2.998-341.001l4.004-341.997l-30-32.002
		c-25-29.004-37.002-34.004-87.002-37.998c-54.004-4.004-57.998-2.998-50,13.994c47.998,117.002,67.998,280.005,45,387.002
		c-27.998,138.003-132.998,280-255,343.003c-32.998,16.997-212.002,81.997-397.998,143.999
		C3815.996,3456,3810,3457.001,3739.003,3392.998c-47.002-42.998-69.004-121.997-50-185C3717.001,3115,3830,3136,3830,3235
		c0,23.999,4.004,46.001,9.004,48.999c3.994,3.003,157.998-43.999,340-106.001c357.998-118.999,391.992-135.996,460-225
		c123.994-160.996,81.992-437.998-91.006-610.996C4442.998,2237.998,4330,2190,4184.003,2190c-215,0-405,130-484.004,330.996
		c-12.002,30-29.004,62.002-37.002,72.002c-22.002,24.004-77.998,22.002-103.994-3.999c-29.004-28.999-21.006-81.001,30-183.003
		c46.992-95.996,117.998-178.994,206.992-241.992l64.004-46.006v-63.994c0-36.006-5.996-80-14.004-99.004
		c-15.996-39.004-41.992-52.998-142.998-84.004C3627.001,1849.004,3600,1825,3600,1782.002c0-27.998,42.002-72.002,67.998-72.002
		c11.006,0,36.006-14.004,57.002-30c99.004-79.004,232.998-132.998,377.002-152.002c182.998-23.994,387.998,30,537.002,142.998
		l51.992,40l87.002-26.992c102.002-30,147.002-61.006,172.998-118.008c17.002-36.992,19.004-68.994,19.004-316.992
		c0-255,0.996-279.004,19.004-300C5015,917.002,5075,917.002,5102.001,950c17.998,22.002,18.994,40,15.996,324.004
		c-2.998,341.992-5,350-88.994,440.996c-56.006,60.996-101.006,82.002-294.004,139.004c-205,60-215,68.994-215,188.994V2125
		l65,47.998c35.996,26.006,75.996,62.998,90,81.006l25.996,33.994l117.002,4.004c132.002,5,172.002,17.998,232.998,78.994
		c68.008,68.008,71.006,93.008,67.002,486.006c-5,392.998-8.994,422.998-87.002,588.999c-125,265-367.998,458.999-650.996,516.997
		C4285,3982.998,4209.003,3987.001,4095,3977.998z M4190,2045c62.998,0,130,4.004,147.998,7.998l32.002,9.004v-54.004
		c0-97.002,42.998-178.994,120-230l25-15.996L4445.996,1730c-170-77.998-366.992-75-528.994,7.002l-47.998,23.994l48.994,44.004
		c57.002,52.002,79.004,97.002,87.998,189.004l7.002,65l31.006-7.002C4060.996,2047.998,4127.001,2045,4190,2045z"/>
	<path fill="#0164A9" d="M532.002,3880C421.001,3851,345,3806,260,3720C126.001,3586,90,3482.998,90,3237.001v-159.004l-31.001-40
		c-80-100.996-77.998-220.996,5-315C110,2671,167.998,2641,221.001,2640h36.997L273.999,2566
		c33.003-148.003,126.001-295.005,242.002-385.005c36.997-27.998,71.001-50.996,75-50.996c5,0,8.999-37.998,8.999-85
		c0-122.998-7.998-130-221.001-194.004c-197.998-58.994-231.001-75-287.998-135.996C7.002,1624.004,5,1615.996,2.002,1274.004
		C-1.001,990,0,972.002,17.998,950C45,917.002,105,917.002,131.001,949.004c17.998,20.996,18.999,45,18.999,300
		c0,247.998,2.002,280,18.999,316.992C195,1622.998,240,1654.004,342.002,1684.004l86.997,26.992l48.003-36.992
		c60.996-47.002,190-109.004,272.998-131.006C838.999,1520,1021,1520,1115,1544.004c88.999,22.998,197.002,73.994,266.001,125.996
		c28.999,22.002,61.997,40,71.997,40c25,0,67.002,45,67.002,72.002c0,42.998-27.002,67.002-102.998,88.994
		c-101.001,31.006-127.002,45-143.003,84.004c-7.998,19.004-13.999,62.998-13.999,97.998v64.004l72.002,53.994
		c86.997,65,155.996,148.008,203.999,245c46.001,93.008,53.999,144.004,25,173.003c-26.001,26.001-82.002,28.003-103.999,3.003
		c-9.004-9.004-26.001-42.998-37.002-72.998c-31.001-82.002-113.999-185-187.002-235c-90.996-62.002-161.997-86.006-268.999-92.002
		c-168.999-7.998-281.997,35-400,152.002C466.001,2442.001,410,2563.999,410,2682.001c0,35-6.001,53.999-22.998,73.999
		c-21.001,23.999-33.003,27.998-106.001,32.998c-75,6.001-86.001,8.999-107.002,33.999c-32.998,38.003-31.001,79.004,5,119.004
		c27.002,30.996,32.002,31.997,127.002,37.998c72.998,5,110,12.002,141.001,27.998C527.998,3050,580,3145,580,3252.001
		c0,31.997,3.999,47.998,12.998,47.998c6.001,0,182.001-33.999,391-76.001C1202.998,3180,1372.998,3151,1387.001,3155
		c52.998,12.998,60,107.998,10,132.998C1372.998,3300,528.999,3470,493.999,3470c-11.001,0-30-10-41.997-22.998
		C432.002,3426,430,3412.998,430,3316C430,3157.001,411.001,3130,300,3130h-62.002l4.004,147.998
		c2.998,140,3.999,150,33.999,212.002c58.999,122.998,166.001,212.998,291.997,245c52.002,13.999,115,16.001,390,12.998
		c369.004-3.999,380-5.996,495-87.998c30-22.002,65-40,77.002-40c55,0,90,51.001,68.999,102.002
		c-15,36.997-130,112.998-221.997,146.997C1305,3895,1305,3895,955,3897.001C635,3898.999,598.999,3897.998,532.002,3880z M930,2045
		c62.998,0,128.999,2.998,146.001,7.002l31.001,7.002l6.997-65c8.999-92.002,31.001-137.002,88.003-189.004l48.999-44.004
		l-48.003-25c-87.998-43.994-160-60-272.998-60c-113.999,0-160,10-260,56.006l-65,30l25,15.996
		c77.001,51.006,120,132.998,120,229.004V2060l32.998-7.998C800,2047.998,867.001,2045,930,2045z"/>
	<path fill="#73BF43" d="M642.998,2950c-45.996-18.999-56.997-82.998-20-117.998c33.002-31.001,80-29.004,106,3.999
		c33.999,42.998,26.001,86.001-20,108.999C677.001,2962.001,673.999,2962.001,642.998,2950z"/>
	<path fill="#73BF43" d="M1138.999,2931c-25-25-30-37.002-25-58.999C1135,2783.999,1260,2792.998,1260,2882.998
		c0,38.003-21.001,62.002-62.002,72.002C1176,2961,1165,2956,1138.999,2931z"/>
	<path fill="#73BF43" d="M3885.996,2938.999c-18.994-15-25.996-30-25.996-55c0-90,125-101.001,145.996-11.997
		c5,21.997,0,32.998-23.994,57.998C3945.996,2965,3922.001,2967.998,3885.996,2938.999z"/>
	<path fill="#73BF43" d="M4412.998,2950c-70-28.999-45-140,31.006-140c38.994,0,75.996,35,75.996,72.002
		C4520,2932.998,4462.001,2970,4412.998,2950z"/>
	<path fill="#73BF43" d="M1067.998,2581c-17.998-10-45.996-25-62.998-33.999c-16.001-9.004-47.998-17.002-70-17.002
		c-41.001,0-117.002,28.999-128.999,48.999C802.001,2585,782.001,2590,761,2590C713.999,2590,690,2566,690,2517.998
		c0-100.996,212.998-170.996,355-117.002C1111,2425,1180,2485,1180,2517.001c0,25.996-33.999,68.999-60,75.996
		C1108.999,2596,1086,2590,1067.998,2581z"/>
	<path fill="#73BF43" d="M3994.003,2588.999c-27.002-8.999-54.004-46.997-54.004-73.003c0-30,72.998-91.992,137.002-115.996
		c102.998-39.004,237.002-15.996,320.996,54.004c26.006,21.992,32.002,35,32.002,65c0,70.996-65.996,92.998-135.996,45.996
		c-64.004-42.998-147.002-45.996-203.008-6.001C4050,2588.999,4017.998,2598.999,3994.003,2588.999z"/>
</g>
</svg>
