<?xml version="1.0" encoding="utf-8"?>
<!-- Generator: Adobe Illustrator 16.0.0, SVG Export Plug-In . SVG Version: 6.00 Build 0)  -->
<!DOCTYPE svg PUBLIC "-//W3C//DTD SVG 1.1//EN" "http://www.w3.org/Graphics/SVG/1.1/DTD/svg11.dtd">
<svg version="1.1" id="Layer_1" xmlns="http://www.w3.org/2000/svg" xmlns:xlink="http://www.w3.org/1999/xlink" x="0px" y="0px"
	 width="512px" height="512px" viewBox="0 0 512 512" enable-background="new 0 0 512 512" xml:space="preserve">
<g transform="translate(0.000000,512.000000) scale(0.100000,-0.100000)">
	<path fill="#0164A9" d="M2283.999,4945c-225-33.999-461.997-117.998-656.001-231.001c-42.998-25-77.998-47.998-77.998-50
		c0-1.997,21.001-36.001,46.001-73.999l46.997-70l41.001,26.001C2255,4896,2979.003,4871,3530,4482.001
		c52.002-37.002,147.002-119.004,210-182.002c232.998-232.998,380-498.999,455.996-825c27.002-112.998,28.008-132.998,29.004-350
		c0-202.998-2.998-242.002-22.998-335C4170,2646,4129.003,2525.996,4064.003,2390.996c-30-62.998-53.008-115-52.002-115.996
		c35-25.996,135-75,145-70.996c18.994,7.998,102.002,185,147.002,315c20,57.998,48.994,160.996,63.994,229.995
		c25,117.002,26.006,143.003,26.006,371.001s-1.006,253.999-26.006,371.001c-50.996,236.001-138.994,447.998-265,638.999
		C4019.003,4256,3985,4297.998,3872.001,4412.998c-261.006,266.001-571.006,435-936.006,513.003
		c-103.994,22.998-150.996,26.997-340.996,30C2442.001,4957.998,2347.001,4955,2283.999,4945z"/>
	<path fill="#73BF43" d="M2320,4546C2017.998,4492.001,1756,4356,1540,4140c-222.998-222.998-368.999-512.002-410-817.002
		c-16.001-117.998-7.998-400,15-501.997C1271,2255,1703.999,1825,2272.998,1702.998c117.002-25.996,457.002-25,575,0
		C3420,1825.996,3854.003,2260,3977.001,2832.001c25.996,118.999,25.996,456.997,0,575.996C3855,3975,3422.998,4410,2860,4535
		C2759.003,4557.998,2425,4563.999,2320,4546z M2779.003,4373.999c367.998-66.001,685.996-286.001,877.998-610
		c60.996-101.001,105-208.999,140-343.999c33.994-130,42.998-382.002,18.994-513.999c-77.998-410.005-320-736.001-685-923.003
		L3045,1939.004l-2.998,172.998L3039.003,2285l51.992,122.998c29.004,67.002,50,124.004,48.008,125
		c-10,7.002-152.002,67.002-154.004,65c-0.996-1.997-24.004-55-50.996-117.998L2885,2365l-5-240l-5-240l-85-17.002
		c-57.998-12.002-130.996-17.998-230-17.998c-98.999,0-172.002,5.996-230,17.998L2245,1885l-5,280l-5,280l-182.002,217.998
		c-100.996,120-185.996,229.004-188.999,244.004c-3.999,13.999,2.002,70,13.999,125.996
		c24.004,111.001,43.003,141.001,101.001,157.002c20,5,153.999,10,298.999,10C2565.996,3200,2560,3201,2515,3141
		C2462.998,3068.999,2387.998,3040,2258.999,3040c-72.998,0-98.999-21.001-98.999-77.998c0-34.004,12.998-55,115-183.003
		c152.998-191.001,173.999-236.001,201.001-426.001l5-32.998H2560h80v67.998c0,132.998-60,284.004-165,416.001
		c-52.002,65-60,86.001-31.001,86.001c30,0,136.997,63.999,173.999,103.999c40,43.003,41.006,43.999,116.006,48.003
		c70.996,2.998,75,1.997,80.996-20c7.998-34.004,75-103.003,120-123.003c25-11.997,64.004-18.999,102.998-18.999
		C3072.001,2880,3100,2876,3100,2871s-10.996-33.999-25-65l-25-57.002l57.002-26.001c110-47.998,97.002-51.997,137.002,42.002
		l35.996,82.998v409.004c0,460,0,453.999-77.002,523.999c-52.998,47.998-98.994,61.997-182.998,56.997c-65-2.998-69.004-1.997-75,20
		c-9.004,37.002-82.998,109.004-130,128.003c-30.996,11.001-65,15-114.004,11.997c-65.996-2.998-70-1.997-75.996,19.004
		c-7.998,35-75,103.999-120,123.999c-52.998,25-157.002,25-210,0c-45-20-112.002-88.999-120-123.999
		c-6.001-21.001-10-22.002-75-19.004c-83.999,5-130-8.999-182.998-56.997C1843.999,3875,1840,3858.999,1840,3572.001v-253.003
		l-35-35c-50-50-70-95-93.999-212.998c-43.003-212.002-38.003-225,191.001-498.003L2080,2360.996V2150v-210l-57.002,25.996
		C1933.999,2005,1812.001,2085,1722.001,2164.004C1315,2520,1180,3082.001,1378.999,3596
		c123.003,317.998,415,601.001,741.001,717.998C2336,4392.001,2562.001,4412.998,2779.003,4373.999z M2440,3980
		c35-18.999,40-63.999,40-346.001V3360h-80h-80v273.999c0,277.002,5,318.999,37.002,343.999
		C2377.001,3992.001,2413.999,3993.999,2440,3980z M2120,3820c32.998-17.002,40-66.001,40-266.001V3360h-80h-80v193.999
		c0,196.001,6.001,240,37.002,263.999C2057.001,3832.001,2093.999,3833.999,2120,3820z M2760,3820c34.004-17.998,40-66.001,40-300
		s-5.996-282.002-40-300s-40-11.001-40,45c0,60-22.002,95-60,95c-19.004,0-20,7.002-20,193.999c0,196.001,5.996,240,37.002,263.999
		C2697.001,3832.001,2734.003,3833.999,2760,3820z M3080,3660c34.004-17.998,40-66.001,40-302.002
		c0-252.998-7.002-291.997-54.004-303.999c-43.994-11.001-75.996,3.999-91.992,41.001c-17.002,42.002-20,476.001-4.004,522.002
		C2989.003,3666,3035,3683.999,3080,3660z"/>
	<path fill="#0164A9" d="M1318.999,4486C1102.001,4293.999,922.998,4025,821,3736C740,3507.998,716,3337.998,722.998,3060
		c7.002-275,45-447.998,152.002-692.002C913.999,2280,1006,2110,1016,2110c1.997,0,35,20.996,73.999,45.996l70,45l-25,42.002
		C1042.998,2392.002,967.001,2581,923.999,2765C897.001,2878.999,895,2897.001,895,3120s2.002,241.001,28.999,355
		c80,342.998,246.001,632.998,492.002,863.999l86.997,81.001L1455,4477.001c-27.002,31.997-52.002,61.997-55,65.996
		C1396,4547.998,1358.999,4522.001,1318.999,4486z"/>
	<path fill="#0164A9" d="M3837.998,2042.002C3687.998,1865,3514.003,1730,3305,1625c-149.004-74.004-265.996-114.004-430-147.998
		c-69.004-14.004-122.998-31.006-135-42.002c-19.004-17.002-20-30.996-20-267.002c0-235,0.996-248.994,20-267.998s32.998-20,200-20
		h180V760V640h-180c-232.998,0-220,10.996-220-180V320h-160h-160v140c0,190.996,12.998,180-220,180h-180v120v120h180
		c167.002,0,181.001,0.996,200,20s20,32.998,20,267.998c0,236.006-1.001,250-20,267.002
		c-12.002,10.996-66.001,27.998-137.998,42.002C1887.998,1550,1581,1720,1342.001,1975.996L1261,2062.002l-65-52.998
		c-48.999-41.006-62.002-57.002-56.001-69.004c17.002-32.998,197.998-207.998,280-272.002c216.001-167.002,460-285,715-342.002
		l100-22.998l2.998-132.002L2241,1040H2060c-167.002,0-181.001-0.996-200-20s-20-32.998-20-260s1.001-240.996,20-260
		c18.999-19.004,32.998-20,200-20h180V340c0-195.996-28.999-180,320-180c349.004,0,320-15.996,320,180v140h180
		c167.002,0,180.996,0.996,200,20c19.004,19.004,20,32.998,20,260s-0.996,240.996-20,260s-32.998,20-200,20h-180.996l2.998,132.002
		l2.998,130.996l82.002,17.998C3317.998,1397.002,3670,1602.002,3925.996,1880c58.008,64.004,124.004,145,124.004,152.998
		c0,5-125,97.002-132.998,97.002C3915,2130,3879.003,2090,3837.998,2042.002z"/>
</g>
</svg>
