<?xml version="1.0" encoding="utf-8"?>
<!-- Generator: Adobe Illustrator 16.0.0, SVG Export Plug-In . SVG Version: 6.00 Build 0)  -->
<!DOCTYPE svg PUBLIC "-//W3C//DTD SVG 1.1//EN" "http://www.w3.org/Graphics/SVG/1.1/DTD/svg11.dtd">
<svg version="1.1" id="Layer_1" xmlns="http://www.w3.org/2000/svg" xmlns:xlink="http://www.w3.org/1999/xlink" x="0px" y="0px"
	 width="512px" height="512px" viewBox="0 0 512 512" enable-background="new 0 0 512 512" xml:space="preserve">
<g transform="translate(0.000000,512.000000) scale(0.100000,-0.100000)">
	<path fill="#73BF43" d="M835,5042.998c-226-18.999-412.001-162.998-486-375.996c-16.001-45-28.999-94.004-28.999-109.004
		C320,4536,312.002,4526,280,4510c-127.002-65-210-227.002-197.002-385C95,3982.001,200,3838.999,327.998,3788.999
		c75-28.999,199.004-36.001,267.002-15l48.999,15L695,3755c155-102.002,375-102.002,530,0l51.001,33.999l43.999-15
		c32.998-11.997,71.001-15,140-11.997c117.002,5,188.999,35.996,267.998,115c90,88.999,128.003,210,110,347.998
		c-22.998,170-172.998,317.002-340,332.002l-56.997,5.996l-12.002,51.001C1386,4797.001,1242.001,4955,1065,5015
		C1013.999,5032.001,890,5047.001,835,5042.998z M1042.998,4837.001c73.003-33.003,160-120,193.003-191.001
		c13.999-30,28.999-88.003,32.998-128.003c5-40,12.002-80.996,16.001-90.996c12.998-31.001,55-44.004,127.002-39.004
		c81.997,5,127.998-8.999,180.996-56.997C1646,4283.999,1670,4230,1670,4157.001C1670,3986,1492.998,3880,1332.001,3955
		c-75,35-99.004,32.002-152.002-16.001c-80-71.001-112.002-83.999-220-83.999s-140,12.002-222.002,83.999
		c-53.999,48.003-75,50-150.996,15C423.999,3880,251.001,3985,250,4157.998c0,101.001,52.002,175,156.001,222.002
		C440,4395,470,4416,475,4426c3.999,11.001,11.001,51.997,16.001,91.997C508.999,4675,607.002,4800,752.998,4852.001
		C831,4880,966,4872.998,1042.998,4837.001z"/>
	<path fill="#73BF43" d="M4180,5038.999c-80-6.997-152.998-27.998-210-61.001C3827.001,4896,3725.996,4765,3690.996,4613.999
		l-11.992-51.001l-57.002-5.996c-122.998-11.001-255-106.001-307.002-220c-49.004-106.001-49.004-248.003,0-354.004
		c32.002-70,115-151.997,190-187.998c50-23.999,75.996-28.999,155-32.998c69.004-3.003,107.002,0,140,11.997l44.004,15L3895,3755
		c155-102.002,375-102.002,530,0l50.996,33.999l44.004-15c32.002-11.001,70.996-15,135-11.997c75,2.998,100.996,8.999,157.002,35
		c85,40,150.996,105,190.996,190.996c30,62.002,32.002,75,32.002,172.002c0,93.999-2.998,111.001-27.998,163.999
		c-37.002,80-82.998,133.999-150,176.001c-40,25-56.006,41.001-57.002,57.002c-0.996,48.999-50,175-94.004,240.996
		C4590.996,4972.001,4402.998,5057.998,4180,5038.999z M4402.998,4837.001c72.998-33.003,160-120,192.998-191.001
		c14.004-30,29.004-88.003,33.008-128.003c5-40,11.992-80.996,15.996-91.997c5-10,35-31.001,69.004-46.001
		C4817.998,4332.998,4870,4258.999,4870,4157.998C4869.003,3985,4694.003,3880,4532.001,3955c-75,35-99.004,32.002-152.002-16.001
		c-80-71.001-112.002-83.999-220-83.999s-140,12.002-222.002,83.999c-55,48.999-78.994,51.001-150.996,13.999
		c-200-102.998-417.002,100-322.998,302.002c43.994,96.001,117.998,137.998,235,135c41.992-2.002,83.994-2.002,92.998-1.001
		c28.994,2.002,50,47.002,58.994,127.002c18.008,158.999,115,282.998,262.002,336.001
		C4190.996,4880,4325.996,4872.998,4402.998,4837.001z"/>
	<path fill="#73BF43" d="M2480,4720v-160h80h80v160v160h-80h-80V4720z"/>
	<path fill="#73BF43" d="M2080,4480v-160h80h80v160v160h-80h-80V4480z"/>
	<path fill="#73BF43" d="M2880,4480v-160h80h80v160v160h-80h-80V4480z"/>
	<path fill="#0164A9" d="M2690,3917.998c-215-55.996-312.002-85.996-327.002-100.996c-30.996-28.003-28.999-61.001,7.002-214.004
		c17.002-68.999,28.999-126.997,27.998-127.998C2396,3473.999,2243.999,3540,2060,3621s-345,147.998-357.998,147.998
		C1688.999,3770,1670,3766,1660,3760c-10-5-367.998-428.999-797.002-940C111.001,1920,85,1887.002,82.002,1844.004l-3.003-45
		L260,1615.996c100-101.992,192.002-186.992,205-190C506.001,1415,536.001,1437.002,618.999,1535c45,52.998,81,94.004,81,90.996
		c0-2.998,27.002-120.996,60-261.992C792.998,1222.998,818.999,1105,816,1102.998c-3.003-2.998-28.003,0-56.001,6.006
		c-117.001,25-268.999,6.992-372.998-45C336.001,1037.998,110,875,110,864.004C110,857.002,202.002,730,207.002,730
		c1.997,0,56.997,40,122.998,90c92.002,67.998,136.001,94.004,186.001,110c136,40.996,260,17.002,387.998-75.996
		c130-95,240-134.004,376.001-134.004S1526,759.004,1656,854.004c175,127.998,352.998,127.998,527.998,0
		c130-95,240-134.004,376.001-134.004c135.996,0,245.996,39.004,375.996,134.004c168.008,122.998,355,126.992,512.002,11.992
		c155-115,240-145.996,392.002-145.996s237.002,30.996,392.002,145.996c110,80,242.998,103.008,372.002,64.004
		c50-15.996,93.994-42.002,185.996-110c65.996-50,120.996-90,122.998-90c5,0,97.002,127.002,97.002,134.004
		c0,13.994-232.998,177.998-290,205c-202.998,90.996-417.998,62.998-609.004-78.008c-80.996-60.996-145-88.994-216.992-96.992
		c-43.008-5-54.004-4.004-54.004,6.992c0,8.008,72.002,86.006,159.004,173.008l158.994,158.994l47.998-17.002
		c119.004-40,259.004-10,344.004,74.004c84.004,85,114.004,225,74.004,344.004l-16.006,47.998l136.006,137.002
		C4877.001,1954.004,4880,1957.998,4880,2000c0,44.004-0.996,45.996-177.998,222.002C4525.996,2397.998,4524.003,2400,4480.996,2400
		c-42.998,0-47.998-2.998-165.996-120l-120.996-120H4035h-157.998l-132.998-132.002c-74.004-72.002-135-130-138.008-127.002
		c-3.994,5-93.994,383.008-90.996,386.006c0.996,2.002,52.998-20,115.996-47.002c63.008-27.002,122.002-50,131.006-50
		c10,0,30.996,12.002,47.002,27.998c22.998,22.002,40.996,67.998,100,252.998c68.994,219.004,77.998,260.005,65,294.004
		c-8.008,21.001-31.006,32.002-360,175c-153.008,67.998-280,122.998-282.002,125C3330.996,3066,3285,3257.998,3230,3491
		c-55,232.998-102.002,433.999-105,446.997c-10,40-40.996,62.002-87.002,61.001C3014.003,3998.999,2857.998,3962.001,2690,3917.998z
		 M2980,3807.001c0-2.002,34.004-146.001,75-321.001S3130,3165,3130,3160c0-6.001-515.996,213.999-529.004,226.001
		c-1.992,1.997-20,72.998-40.996,156.997l-36.001,154.004l210.005,55.996C2927.998,3803.999,2980,3815,2980,3807.001z M2775,3120
		c555.996-242.998,1010.996-442.998,1012.998-445c2.002-1.001-15.996-63.999-40-139.004C3715,2429.004,3702.001,2400,3690,2402.998
		c-7.998,2.998-424.004,187.002-922.998,411.001C2155,3087.001,1847.001,3220,1825,3220c-21.001,0-42.998-8.999-57.998-22.002
		C1748.999,3181,923.999,2180.996,482.998,1640c-5-5-197.998,200-197.998,210.996c0,3.008,323.999,394.004,718.999,867.002
		C1641,3480,1726,3577.001,1743.999,3570C1756,3566,2220,3362.998,2775,3120z M2587.998,2706L3315,2380.996l170.996-725
		c93.008-398.994,165-721.992,160-718.994C3640,940,3605.996,964.004,3570,990c-74.004,54.004-122.002,79.004-200,105.996
		c-77.002,26.006-262.998,27.002-337.998,0c-29.004-10-56.006-15-59.004-11.992c-2.998,2.998-50,200-105,437.998
		C2750,2039.004,2742.998,2057.998,2610,2190c-132.002,132.002-267.998,190-451.001,190c-281.997,0-527.998-177.002-615-442.998
		c-21.997-67.998-26.997-101.006-26.997-192.002C1516,1642.998,1521,1614.004,1585,1345.996
		c47.998-202.998,65-290.996,57.002-293.994c-7.002-2.002-38.003-22.998-70-46.006C1485,942.002,1450,922.998,1386,905
		c-75-22.002-178.999-15.996-256.001,14.004C1026,959.004,1038.999,930,931,1387.002l-97.002,408.994l398.999,485
		C1831,3007.001,1850,3030,1856,3030C1858.999,3030,2187.998,2883.999,2587.998,2706z M2275,2195c82.002-22.002,150-60.996,215-125
		c94.004-92.002,107.998-130,220-624.004c55-240.996,100-446.992,100-456.992c0-22.002-67.998-62.002-144.004-84.004
		c-63.994-19.004-197.998-17.002-216.997,2.002c-10,10-308.999,1260-308.999,1290C2140,2215,2202.001,2214.004,2275,2195z
		 M4580,2095l95-95l-97.002-95.996l-95.996-97.002l-47.998,17.002c-119.004,40-259.004,10-344.004-74.004
		c-84.004-85-114.004-225-74.004-344.004l17.002-47.998l-118.994-118.994c-65-65-120-116.006-124.004-113.008
		c-2.998,3.008-35,131.006-70.996,284.004l-65,279.004l155,155L3965,2000h159.004h158.994l96.006,95
		c52.998,52.002,97.998,95,100.996,95S4527.998,2147.002,4580,2095z M2098.999,1609.004C2171,1302.998,2230,1047.998,2230,1042.002
		c0-6.006-20,0-43.999,13.994c-71.001,40-188.999,65-286.001,62.002l-85-2.002L1752.998,1380c-75,317.998-80,362.002-58.999,452.998
		c21.001,91.006,58.003,159.004,120,225C1855,2102.002,1957.998,2175,1966,2167.002
		C1967.001,2165.996,2027.001,1915,2098.999,1609.004z M4397.998,1650c130-79.004,74.004-280-77.998-280
		s-207.998,200.996-77.998,280C4285,1675.996,4355,1675.996,4397.998,1650z"/>
	<path fill="#73BF43" d="M320,3440v-160h80h80v160v160h-80h-80V3440z"/>
	<path fill="#73BF43" d="M3520,3440v-160h80h80v160v160h-80h-80V3440z"/>
	<path fill="#73BF43" d="M4640,3440v-160h80h80v160v160h-80h-80V3440z"/>
	<path fill="#73BF43" d="M720,3280v-160h80h80v160v160h-80h-80V3280z"/>
	<path fill="#73BF43" d="M3920,3280v-160h80h80v160v160h-80h-80V3280z"/>
	<path fill="#73BF43" d="M4320,3120v-160h80h80v160v160h-80h-80V3120z"/>
	<path fill="#73BF43" d="M4800,2880v-160h80h80v160v160h-80h-80V2880z"/>
	<path fill="#0164A9" d="M502.002,464.004c-95-25-155-57.002-274.004-146.006C162.998,270,110,227.002,110,224.004
		C110,217.002,202.002,90,207.002,90c1.997,0,56.997,40,122.998,90c92.002,67.998,136.001,94.004,186.001,110
		c136,40.996,260,17.002,387.998-75.996c130-95,240-134.004,376.001-134.004S1526,119.004,1656,214.004
		c175,127.998,352.998,127.998,527.998,0c130-95,240-134.004,376.001-134.004c135.996,0,245.996,39.004,375.996,134.004
		c168.008,122.998,355,126.992,512.002,11.992c155-115,240-145.996,392.002-145.996s237.002,30.996,392.002,145.996
		c110,80,242.998,103.008,372.002,64.004c50-15.996,93.994-42.002,185.996-110c65.996-50,120.996-90,122.998-90
		c5,0,97.002,127.002,97.002,134.004c0,2.998-50.996,43.994-112.998,90.996c-179.004,134.004-287.002,172.998-455,162.002
		C4312.998,470,4222.001,432.998,4080,330c-152.998-110.996-337.998-105-504.004,15.996
		c-141.992,103.008-258.994,141.006-413.994,131.006C3032.998,470,2942.001,432.998,2800,330
		C2647.001,219.004,2462.001,225,2296,345.996c-142.002,103.008-258.999,141.006-413.999,131.006
		C1752.998,470,1662.001,432.998,1520,330C1367.001,219.004,1182.001,225,1016,345.996C930,407.998,840,452.002,762.001,469.004
		C691,484.004,567.002,482.002,502.002,464.004z"/>
</g>
</svg>
