<?xml version="1.0" encoding="utf-8"?>
<!-- Generator: Adobe Illustrator 16.0.0, SVG Export Plug-In . SVG Version: 6.00 Build 0)  -->
<!DOCTYPE svg PUBLIC "-//W3C//DTD SVG 1.1//EN" "http://www.w3.org/Graphics/SVG/1.1/DTD/svg11.dtd">
<svg version="1.1" id="Layer_1" xmlns="http://www.w3.org/2000/svg" xmlns:xlink="http://www.w3.org/1999/xlink" x="0px" y="0px"
	 width="512px" height="512px" viewBox="0 0 512 512" enable-background="new 0 0 512 512" xml:space="preserve">
<g transform="translate(0.000000,512.000000) scale(0.100000,-0.100000)">
	<path fill="#73BF43" d="M1670,4687.001c-192.002-56.001-310-220-297.998-414.004c15-231.997,235.996-405.996,463.999-363.999
		C2011,3941,2132.001,4066,2162.998,4245C2201,4467.998,2025,4683.999,1793.999,4696C1746,4697.998,1697.001,4695,1670,4687.001z
		 M1845,4528.999c61.001-16.997,138.999-101.001,155-167.998c37.002-156.001-71.001-295-230-295
		c-77.998,0-128.999,22.998-182.998,82.998c-43.003,48.003-61.001,107.002-54.004,178.999
		C1548.999,4478.999,1691,4571,1845,4528.999z"/>
	<path fill="#73BF43" d="M3270,4687.001c-192.002-56.001-310-220-297.998-414.004c15-231.997,235.996-405.996,463.994-363.999
		C3610.996,3941,3732.001,4066,3762.998,4245C3800.996,4467.998,3625,4683.999,3394.003,4696
		C3345.996,4697.998,3297.001,4695,3270,4687.001z M3445,4528.999c60.996-16.997,139.004-101.001,155-167.998
		c37.002-156.001-70.996-295-230-295c-77.998,0-129.004,22.998-182.998,82.998c-42.998,48.003-61.006,107.002-54.004,178.999
		C3149.003,4478.999,3290.996,4571,3445,4528.999z"/>
	<path fill="#0164A9" d="M892.001,3998.999c-57.002-10-152.002-55-194.004-91.997c-53.999-49.004-97.998-120-118.999-189.004
		c-56.001-185,32.002-382.998,208.999-470C850,3217.001,861,3215,960,3215s110,2.002,172.002,32.998
		c176.997,87.002,265,285,208.999,470c-45,149.004-168.003,256.001-322.002,282.002c-35,5-66.001,8.999-68.999,8.999
		C947.001,4007.998,921,4003.999,892.001,3998.999z M1027.998,3835c206.001-61.001,231.001-351.001,39.004-441.001
		C861,3297.998,647.998,3502.998,743.999,3705C775,3770,817.001,3807.998,882.001,3831
		C947.001,3853.999,962.998,3853.999,1027.998,3835z"/>
	<path fill="#0164A9" d="M4092.001,3998.999c-57.002-10-152.002-55-194.004-91.997c-53.994-49.004-97.998-120-118.994-189.004
		c-56.006-185,31.992-382.998,208.994-470C4050,3217.001,4060.996,3215,4160,3215s110,2.002,172.002,32.998
		c177.002,87.002,265,285,208.994,470c-45,149.004-167.998,256.001-321.992,282.002c-35,5-66.006,8.999-69.004,8.999
		C4147.001,4007.998,4120.996,4003.999,4092.001,3998.999z M4227.998,3835c206.006-61.001,231.006-351.001,39.004-441.001
		c-206.006-96.001-419.004,108.999-322.998,311.001c30.996,65,72.998,102.998,137.998,126.001
		C4147.001,3853.999,4162.998,3853.999,4227.998,3835z"/>
	<path fill="#73BF43" d="M1665,3733.999c-97.998-25-156.001-46.997-165-63.999c-16.001-30-12.002-65,11.001-93.999
		c25-31.001,63.999-33.999,146.997-10C1730,3587.001,1843.999,3580,1921,3550c87.998-33.999,186.001-113.999,245-200
		c70-102.002,97.998-130,126.997-130c39.004,0,77.002,36.001,77.002,72.998c0,87.002-182.998,300-317.002,370
		c-40,21.001-93.999,45-120,53.003C1885,3731,1702.001,3742.998,1665,3733.999z"/>
	<path fill="#73BF43" d="M3260,3733.999C3085,3700,2915.996,3582.001,2805,3415c-65-97.002-72.002-140-29.004-173.999
		c56.006-43.999,84.004-27.002,178.008,108.999c121.992,177.998,325,263.999,505.996,215c104.004-27.998,122.002-28.999,147.002-5
		c30.996,27.998,38.994,67.998,22.002,98.999c-22.002,40-130,73.003-249.004,77.002C3327.998,3737.001,3274.003,3736,3260,3733.999z
		"/>
	<path fill="#0164A9" d="M2466,3090c-63.003-16.001-153.003-70-197.002-117.002c-21.997-23.999-55-73.999-71.997-110.996
		C2167.998,2801,2165,2786,2165,2700s2.998-101.001,32.002-162.002c76.997-163.994,256.997-260.996,422.998-230
		c137.998,25,244.004,106.006,302.998,230C2952.001,2598.999,2955,2613.999,2955,2701c0,90-2.002,98.999-37.002,171.001
		C2850,3007.998,2730,3088.999,2582.001,3096C2540,3097.998,2487.998,3095,2466,3090z M2667.001,2916
		c137.002-71.001,173.994-251.001,75-366.001c-51.006-60-104.004-84.004-182.002-84.004S2428.999,2490,2377.998,2550
		c-107.998,125-55.996,317.998,101.001,377.002C2523.999,2943.999,2625,2937.998,2667.001,2916z"/>
	<path fill="#0164A9" d="M868.999,3040c-235-37.002-448.999-222.998-552.998-482.998c-53.003-134.004-68.003-210-73.003-392.998
		c-2.998-95-2.998-184.004,1.001-198.008c10-37.998,65-62.998,103.999-46.992c16.001,6.992,34.004,21.992,40,33.994
		c6.001,12.002,13.003,99.004,15,192.002c4.004,130.996,10,187.998,26.001,250C490,2625,642.998,2803.999,830,2866
		c76.001,25,196.001,21.997,273.999-5C1257.998,2806,1391,2667.001,1460,2487.998c52.998-137.002,60-210,60-628.994V1480h-80h-80
		v405v405.996L1335,2315c-15,15.996-36.001,25-55,25s-40-9.004-55-25l-25-24.004V1885v-405H960H720v405v405.996L695,2315
		c-15,15.996-36.001,25-55,25c-18.999,0-40-9.004-55-25l-25-24.004V1885v-405h-80h-80v110c0,104.004-1.001,112.002-25,135
		c-15,15.996-36.001,25-55,25s-40-9.004-55-25c-23.999-24.004-25-27.998-25-184.004c0-155,1.001-160.996,23.999-187.998
		L287.998,1325H960h672.002l23.999,27.998l23.999,27.998v320V2020h175c172.998,0,176.001,0,200,25
		c32.998,32.002,32.998,77.998,0,110c-23.999,25-27.002,25-200,25h-175v34.004c0,17.998-7.002,72.998-15,121.992
		c-47.002,274.004-187.002,498.003-382.998,618.003C1165,3025,997.998,3060,868.999,3040z"/>
	<path fill="#0164A9" d="M4069.003,3040c-321.006-50-574.004-357.002-621.006-754.004L3435.996,2180h-173.994
		c-170,0-172.998,0-197.002-25c-15.996-15-25-35.996-25-55s9.004-40,25-55c24.004-25,27.002-25,200-25h175v-319.004v-320
		l24.004-27.998l23.994-27.998H4160h672.002l23.994,27.998l24.004,27.998V1810c0,252.998-4.004,460-10.996,505.996
		c-29.004,212.002-140,432.002-280,558.003C4445.996,3002.998,4244.003,3067.001,4069.003,3040z M4309.003,2858.999
		C4455.996,2807.998,4592.001,2665,4660,2487.998c52.998-137.002,60-210,60-628.994V1480h-80h-80v405v405.996L4535,2315
		c-32.002,32.998-77.998,32.998-110,0l-25-24.004V1885v-405h-240h-240v405v405.996L3895,2315c-32.002,32.998-77.998,32.998-110,0
		l-25-24.004V1885v-405h-80.996h-80l2.998,417.998c3.994,392.998,5,422.002,25.996,497.002
		C3702.001,2660,3890,2852.001,4105,2882.998C4154.003,2890,4250,2878.999,4309.003,2858.999z"/>
	<path fill="#0164A9" d="M2422.001,2125c-99.004-22.002-206.001-80.996-289.004-159.004c-130.996-121.992-210-256.992-260.996-445
		L1846,1425l-3.999-477.002L1838.999,470l25-25l25-25H2560h670.996l25,25l25,25l-2.998,477.998L3274.003,1425l-26.006,95.996
		c-78.994,291.006-263.994,510-497.998,589.004C2665.996,2139.004,2511,2145.996,2422.001,2125z M2659.003,1969.004
		c193.994-44.004,350.996-215,427.998-466.006l27.002-87.998l3.994-417.998L3122.001,580h-81.006H2960v399.004
		c0,387.998-0.996,398.994-20.996,425c-29.004,36.992-89.004,36.992-118.008,0c-20-26.006-20.996-37.002-20.996-425V580h-240h-240
		v399.004c0,387.998-1.001,398.994-21.001,425c-28.999,36.992-88.999,36.992-117.998,0c-20-26.006-21.001-37.002-21.001-425V580
		h-81.001h-81.001l5,417.998c4.004,465,5,474.004,77.002,627.002c83.999,180.996,223.999,307.998,377.002,344.004
		C2508.999,1980.996,2605.996,1982.002,2659.003,1969.004z"/>
</g>
</svg>
