<?xml version="1.0" encoding="utf-8"?>
<!-- Generator: Adobe Illustrator 16.0.0, SVG Export Plug-In . SVG Version: 6.00 Build 0)  -->
<!DOCTYPE svg PUBLIC "-//W3C//DTD SVG 1.1//EN" "http://www.w3.org/Graphics/SVG/1.1/DTD/svg11.dtd">
<svg version="1.1" id="Layer_1" xmlns="http://www.w3.org/2000/svg" xmlns:xlink="http://www.w3.org/1999/xlink" x="0px" y="0px"
	 width="512px" height="512px" viewBox="0 0 512 512" enable-background="new 0 0 512 512" xml:space="preserve">
<g transform="translate(0.000000,512.000000) scale(0.100000,-0.100000)">
	<path fill="#0164A9" d="M4075,5065c-142.002-26.001-292.998-92.998-382.002-170c-52.998-45-58.994-91.001-17.002-123.999
		c37.002-28.999,52.002-27.002,123.008,18.999c157.998,102.002,258.994,133.999,425.996,135
		c145.996,0,199.004-12.002,334.004-77.002C4650,4803.999,4675,4786,4750.996,4711c75-75,94.004-101.001,137.002-192.002
		c65-133.999,87.002-236.001,79.004-368.999c-20-322.002-244.004-595-557.002-677.002c-89.004-22.998-272.998-22.998-360,1.001
		c-440.996,120-670,578.003-500.996,1001.001c26.992,67.002,30,82.998,20.996,106.001c-10.996,25-45.996,48.999-74.004,48.999
		c-62.998,0-138.994-192.998-151.992-387.998l-7.002-90l-66.006-28.003c-150.996-62.998-282.998-150-430.996-285l-95-86.001
		l-80,74.004c-202.002,187.998-397.002,300-621.001,357.998C1702.998,4273.999,1382.001,4216,1122.998,4021
		C1016,3940,980,3898.999,980,3855c0-36.001,36.001-75,70-75c10,0,52.998,30,97.002,67.002C1243.999,3930,1316,3976,1400,4011
		C1646,4111,1937.001,4095,2207.001,3965c130.996-62.002,225-128.999,355-251.001C2689.003,3593.999,2725,3572.998,2775,3590
		c17.998,6.001,84.004,58.999,150,121.001c120,111.997,230.996,192.998,340,246.997C3359.003,4005,3357.998,4005,3384.003,3925
		C3430.996,3776,3497.998,3668.999,3615,3555c249.004-243.999,602.002-317.002,935-192.002l87.998,34.004l21.006-71.001
		c30.996-108.003,40-155,50-273.003c25-277.998-48.008-567.998-201.006-798.994c-62.002-93.008-127.002-165-487.002-533.008
		c-228.994-233.994-482.998-493.994-563.994-576.992l-147.998-152.002l-117.002-22.998c-66.006-13.008-150-22.002-192.002-21.006
		c-44.004,1.006-217.002,27.998-424.004,66.006c-290.996,53.994-351.997,67.998-371.997,85.996c-31.001,30-37.998,70-20,114.004
		c25,60,38.003,61.992,283.003,30.996c307.002-37.998,383.994-40.996,462.998-20.996c317.998,81.992,332.998,462.998,24.004,615.996
		c-95,45.996-484.004,120-674.004,127.002c-150,5-205-1.006-665-82.002l-260-45.996l-146.001,148.994
		c-160,162.998-227.998,251.006-296.001,386.006C812.001,2573.999,775,2755,782.998,3003.999
		C788.999,3188.999,811,3295,878.999,3455C925,3562.001,928.999,3591,900,3620c-25,25-81.001,27.002-102.002,2.998
		c-38.999-43.999-105.996-218.999-138.999-362.998c-28.999-121.001-36.997-401.001-15-530
		c51-312.998,173.999-554.004,407.001-794.004l120-125l-33.003-5C967.998,1777.002,861,1760,851,1760
		C845,1760,840,1770.996,840,1784.004c0,26.992-42.998,73.994-73.999,81.992c-12.002,2.002-175,4.004-363.002,2.002L60,1865
		l-27.002-27.998L5,1810l-2.998-689.004c-1.001-438.994,0.996-697.998,7.998-715c5-13.994,23.999-35,42.002-45.996
		c31.997-20,46.997-20,380-17.998L778.999,345l30,29.004C826,390.996,840,414.004,840,427.002S845,450,852.001,450
		C858.999,450,1186,362.998,1580,255.996c392.998-106.992,752.998-200,798.999-206.992c178.999-25,310.005-2.002,705.005,125
		C3210.996,215,3535.996,319.004,3805,405c270,87.002,512.002,169.004,539.004,182.002c68.994,35,140.996,105.996,172.998,170.996
		c22.002,46.006,27.998,70,27.998,132.002c0,64.004-4.004,82.002-29.004,127.998C4470,1100,4404.003,1142.002,4292.001,1162.002
		c-79.004,12.998-70,15-462.002-66.006c-124.004-25-230.996-45.996-237.998-45.996c-15,0,93.994,114.004,627.998,662.002
		C4467.001,1965,4572.001,2080,4617.998,2147.998C4865,2510,4930,2970,4794.003,3397.001l-26.006,81.997l62.998,58.003
		c313.008,290,378.008,743.999,158.008,1115.996c-55,95-201.006,241.001-296.006,296.001
		C4502.001,5062.001,4280.996,5102.998,4075,5065z M2584.003,1775.996c135-25,266.992-53.994,292.998-65.996
		c57.998-25,107.998-70.996,135-124.004c57.998-112.998-37.998-225-192.002-225.996c-25,0-165,14.004-311.001,32.002
		c-235,27.998-271.001,30-311.997,18.994c-177.002-50-232.002-288.994-95-416.992C2120,975.996,2148.999,955,2166,945.996
		C2218.999,920,2910.996,797.002,3010,797.002c67.998,0,180,18.994,550,90.996c255.996,51.006,490,99.004,520,107.002
		c134.004,35,229.004,27.998,282.002-22.998c75-70,20.996-207.998-101.006-259.004C4167.998,674.004,2752.998,227.002,2667.998,210
		C2556,187.002,2465,185,2360,204.004c-41.001,7.998-397.998,101.992-792.998,210C1172.001,522.002,846,610,843.999,610
		c-1.997,0-2.998,224.004-1.997,497.002L845,1604.004l550,92.998c717.998,122.002,712.998,120.996,836.001,122.002
		C2317.001,1820,2386,1810.996,2584.003,1775.996z M690,1105V490H420H150v615v615h270h270V1105z"/>
	<path fill="#73BF43" d="M4180,4540c-17.998-17.998-20-32.998-20-145v-125h-109.004C3935,4270,3885,4258.999,3870,4230
		c-15.996-31.001-10.996-65,12.998-87.998c20-19.004,36.006-22.002,147.002-24.004l125-2.998l2.998-125
		c2.002-111.001,5-127.002,24.004-147.002c22.998-23.999,57.002-28.999,87.998-12.998c29.004,15,40,65,40,181.001V4120h125
		c112.002,0,127.002,2.002,145,20c25,25,25.996,71.001,0.996,101.001c-17.998,22.998-26.992,23.999-143.994,26.997l-125,4.004
		l-4.004,125c-2.998,116.997-3.994,125.996-27.002,143.999C4250.996,4566,4205,4565,4180,4540z"/>
	<path fill="#73BF43" d="M2717.998,3180c-8.994-6.001-82.998-127.002-165-270c-80.996-142.998-150-260-152.998-260
		s-45,62.998-92.998,140c-90,142.002-115,170-152.002,170c-33.999-1.001-50-21.001-145-177.998L1918.999,2630H1691
		c-225,0-228.003,0-248.999-22.998c-31.001-33.003-29.004-80,3.999-106.006c25-20,38.999-20.996,275-20.996
		c156.001,0,256.997,4.004,271.997,10.996c14.004,6.006,51.001,56.006,92.002,125.005c37.002,62.998,72.002,112.998,77.002,111.997
		c5-1.997,47.998-65.996,96.997-142.998C2356,2430.996,2380,2409.004,2427.001,2429.004c25,10,55.996,55.996,178.994,270.996
		c81.006,142.998,150,257.002,154.004,253.999c2.998-2.998,92.998-166.001,200.996-361.997
		c260-474.004,236.006-466.006,426.006-147.002L3515,2658.999l300.996,1.001C4105,2660,4117.998,2661,4144.003,2681
		c33.994,26.997,35.996,76.997,2.998,106.997C4124.003,2810,4119.003,2810,3789.003,2810c-279.004,0-338.008-2.002-356.006-15
		c-10.996-7.998-65-88.999-118.994-180c-54.004-90.996-101.006-162.002-105-157.998C3205,2462.001,3115,2622.998,3010,2815
		c-105.996,192.998-199.004,356.001-207.998,362.998C2782.998,3192.001,2742.001,3192.998,2717.998,3180z"/>
</g>
</svg>
