<?xml version="1.0" encoding="utf-8"?>
<!-- Generator: Adobe Illustrator 16.0.0, SVG Export Plug-In . SVG Version: 6.00 Build 0)  -->
<!DOCTYPE svg PUBLIC "-//W3C//DTD SVG 1.1//EN" "http://www.w3.org/Graphics/SVG/1.1/DTD/svg11.dtd">
<svg version="1.1" id="Layer_1" xmlns="http://www.w3.org/2000/svg" xmlns:xlink="http://www.w3.org/1999/xlink" x="0px" y="0px"
	 width="512px" height="512px" viewBox="0 0 512 512" enable-background="new 0 0 512 512" xml:space="preserve">
<g transform="translate(0.000000,512.000000) scale(0.100000,-0.100000)">
	<path fill="#73BF43" d="M2340,4771C2250,4742.001,2166,4667.998,2127.998,4585C2110,4545,2105,4517.998,2105,4445
		c0-78.999,3.999-96.001,27.998-142.998C2187.001,4198.999,2267.001,4140,2381,4118.999c120-21.997,244.995,30,321.997,133.999
		c124.004,167.002,65,400-125,498.003c-32.998,16.997-63.999,22.998-127.998,26.001C2402.998,4777.998,2353.999,4776,2340,4771z
		 M2475,4608.999C2582.001,4580,2630.996,4462.001,2577.001,4365c-25-45-92.002-85-142.002-85
		c-41.001,0-113.999,37.998-138.999,72.002c-27.002,37.998-33.003,125-11.001,171.997c18.999,38.999,58.999,73.003,102.998,86.001
		C2425,4621,2430,4621,2475,4608.999z"/>
	<path fill="#0164A9" d="M1108.999,4436c-66.997-23.999-102.998-53.999-285-238.003C671,4042.998,641.001,4007.001,627.002,3966
		C600,3886,605,3822.001,642.998,3748.999C715,3610,878.999,3563.999,1015,3645c22.002,12.998,93.999,77.998,160,143.999L1295,3910
		h92.002H1480L1333.999,3691l-146.001-220L981,3366L775,3262.001L576.001,3386c-108.999,67.998-215,127.998-235,133.999
		c-90,25-188.003,0-253.003-62.998C23.999,3395,5,3350,5,3260c0-85,20-132.998,77.002-186.001
		C128.999,3030,626.001,2720,678.999,2702.001c88.999-30,130-18.003,423.003,128.999L1370,2965l170-85
		c157.002-77.998,172.002-87.998,200-132.002c17.002-25.996,43.999-56.997,61.001-68.999c21.997-15,61.001-82.998,148.999-259.995
		c66.001-131.006,120-242.002,120-247.002c0-4.004-46.001-30-102.002-57.998L1865,2062.998l-245,154.004
		C1272.001,2435.996,1295,2425,1175,2425c-88.999,0-106.001-2.998-150-27.002C962.998,2365.996,896,2295,867.001,2232.002
		C833.999,2160.996,836,2034.004,871,1959.004c15-31.006,41.997-72.002,61.997-91.006c39.004-38.994,701.001-457.002,785-495.996
		C1780,1344.004,1881,1337.998,1945,1360c22.002,7.002,197.002,90.996,390,187.998l350,174.004L2980.996,1575l296.006-147.998
		l187.002-376.006c102.998-206.992,198.994-391.992,211.992-411.992c32.002-47.002,100-95,166.006-119.004
		c52.998-17.998,45-19.004-820-19.004L2148.999,500L2125,475c-31.001-30-32.002-72.998-3.999-109.004L2141,340h1419.995
		c907.002,0,1427.002,4.004,1439.004,10c22.002,12.002,42.002,64.004,32.998,87.998c-2.998,9.004-15,27.002-25.996,40l-20,22.002
		l-496.006,0.996L3995,502.002l57.998,20c76.006,25.996,166.006,107.998,197.998,180c19.004,42.002,24.004,70,24.004,140v87.002
		L4042.001,1395c-187.002,375.996-241.006,475.996-279.004,515.996c-25,27.002-43.994,49.004-42.002,49.004
		c2.002,0,26.006-7.002,53.008-15c26.992-7.998,65-15,83.994-15c59.004,0,942.998,180,987.998,200.996
		c69.004,33.008,121.006,85,156.006,157.002c60.996,122.998,40.996,270-51.006,375c-17.998,20-60.996,51.001-95.996,68.003
		c-104.004,51.001-135.996,50-490-21.001c-170-32.998-317.002-62.998-325-65c-10.996-2.998-95,125-295,452.002
		C3590.996,3347.998,3447.998,3571,3427.998,3591c-20.996,21.001-60.996,51.001-90,66.001L3285,3685l-465,2.002l-465,1.997
		l-202.998,328.003C1935,4370,1902.998,4408.999,1817.001,4435C1748.999,4455,1165,4456,1108.999,4436z M1798.999,4252.998
		C1815,4237.001,1907.998,4095,2005,3935C2102.998,3776,2188.999,3636,2196,3625c12.998-18.999,7.998-27.002-60-93.999
		l-73.003-73.003L1986,3583.999C1942.998,3652.998,1900,3715,1890,3720c-26.001,13.999-72.998,12.002-92.002-2.002
		C1788.999,3711,1731,3628.999,1668.999,3535c-151.001-227.998-151.001-233.999,5-312.002c50-25,92.002-45.996,93.999-47.998
		c1.001-1.001-12.998-26.001-31.997-53.999c-20-28.999-38.003-67.002-42.002-86.001c-2.998-18.999-10-35-15-35
		s-71.997,32.002-148.999,70c-77.002,38.999-148.999,70-160,70s-146.001-62.998-300-140c-191.001-95-290-140-312.998-140
		c-25,0-92.002,36.001-283.002,155C337.002,3101,212.998,3183.999,197.998,3201c-76.997,82.998,19.004,196.997,121.001,143.999
		c16.001-7.002,115-67.998,220-133.999c106-67.002,202.001-123.003,215-127.002C770,3080,851,3116,1037.998,3208.999L1300,3340
		l210,315c115,173.999,210,325,210,336.001c0,25-17.998,60-38.999,76.001C1670,4076,1602.001,4078.999,1446,4080h-218.999L1075,3930
		C927.001,3783.999,922.001,3780,881,3780C822.998,3780,780,3821,780,3876c0,36.001,10,47.998,182.998,221.001L1146,4280h311.997
		H1770L1798.999,4252.998z M3219.003,3521c23.994-5,55-18.003,70-28.003c13.994-10.996,158.994-236.997,321.992-501.997
		c164.004-265,303.008-488.999,310-496.997c30-37.002,51.006-35,406.006,35.996c190.996,38.999,362.998,70,380.996,70
		c112.002,0,191.006-127.002,144.004-232.002c-36.006-80.996-37.002-82.002-536.006-180.996c-492.998-99.004-500-100-560-46.006
		c-18.994,16.006-103.994,143.008-190,282.002c-85,139.004-163.994,261.001-173.994,270C3372.998,2710,3335,2715,3305,2703.999
		c-25-10-335-479.995-335-508.003c0-12.998,7.998-33.994,17.998-45.996c10-12.998,162.002-95,337.998-184.004L3645,1805l232.998-460
		C4107.001,890.996,4110,884.004,4107.001,829.004c-4.004-70-34.004-114.004-95-141.006c-32.002-15-55-17.998-86.006-13.994
		C3835,687.998,3832.998,690,3605,1140.996L3395,1555l-340,172.002c-187.002,95-352.002,172.002-367.002,172.002
		c-15.996,0.996-180-76.006-400-188.008c-205-103.994-390-191.992-411.997-195.996c-21.001-4.004-53.003-2.998-71.001,2.002
		C1748.999,1535,1062.001,1970,1037.998,2002.998c-32.998,46.006-35.996,125-6.997,177.002c31.997,55.996,80,84.004,145,84.004
		c48.999,0,62.998-8.008,350-186.006C1690,1975.996,1835,1889.004,1846,1885.996c16.001-5,116.001,41.006,375,171.006L2575,2235
		l277.998,415C3070.996,2976,3130,3072.001,3130,3097.001c0,90-12.002,92.998-345.996,92.998h-277.002L2306,2991
		C2142.998,2830,2097.001,2790,2062.998,2780c-150-45-270,117.998-183.999,251.001c15,23.999,127.002,141.001,247.002,260
		C2322.998,3486,2350,3508.999,2390,3517.998C2445,3530,3157.998,3532.001,3219.003,3521z M1895,3412.998l46.001-75.996l-20-20
		L1901,3296l-70,35L1760,3365l41.001,62.998c22.998,34.004,42.998,62.002,45,62.002C1847.001,3490,1868.999,3456,1895,3412.998z
		 M2890,3015c0-2.998-82.002-127.998-180.996-277.002l-182.002-272.002L2442.998,2635l-85,167.998l109.004,109.004L2575,3020
		h157.002C2819.003,3020,2890,3017.998,2890,3015z M2315,2510c47.002-94.004,83.999-174.004,81.001-177.998
		c-6.001-11.006-165-87.002-170-81.006c-8.003,8.008-177.002,351.006-173.999,353.003c1.997,1.001,25.996,8.003,52.998,13.999
		c27.998,7.002,66.001,24.004,85,37.002s36.001,23.999,37.002,23.999C2228.999,2680,2267.998,2602.998,2315,2510z
		 M3465.996,2267.998c107.002-175.996,173.008-260,229.004-295.996c10.996-6.006-99.004,47.002-245,118.994
		c-145.996,72.002-267.002,133.008-269.004,135c-5.996,6.006,153.008,243.008,160,238.008
		C3345,2462.001,3400.996,2372.998,3465.996,2267.998z"/>
	<path fill="#73BF43" d="M3990,4188.999c-207.998-35-379.004-236.001-380-446.001c0-230.996,165.996-426.997,392.998-462.998
		c225-35,454.004,113.999,511.006,335c67.998,258.999-91.006,515-353.008,571.001C4087.001,4201,4069.003,4202.001,3990,4188.999z
		 M4195.996,4000c181.006-87.998,222.002-333.999,79.004-472.998c-60.996-59.004-117.998-82.002-205-81.001
		c-89.004,1.001-132.998,17.998-197.002,76.001C3802.001,3587.998,3785,3628.999,3785,3735c0,72.998,4.004,97.002,22.002,130
		c18.994,36.001,67.998,87.998,115.996,125C3980,4032.998,4117.001,4037.998,4195.996,4000z"/>
	<path fill="#0164A9" d="M1622.001,477.002c-30-32.002-29.004-87.002,0.996-115c21.001-20,34.004-22.002,141.001-22.002
		c111.001,0,118.003,0.996,141.001,25c16.001,15,25,35.996,25,55s-8.999,40-25,55c-22.998,24.004-30,25-142.998,25
		C1651,500,1642.001,499.004,1622.001,477.002z"/>
</g>
</svg>
