<?xml version="1.0" encoding="utf-8"?>
<!-- Generator: Adobe Illustrator 16.0.0, SVG Export Plug-In . SVG Version: 6.00 Build 0)  -->
<!DOCTYPE svg PUBLIC "-//W3C//DTD SVG 1.1//EN" "http://www.w3.org/Graphics/SVG/1.1/DTD/svg11.dtd">
<svg version="1.1" id="Layer_1" xmlns="http://www.w3.org/2000/svg" xmlns:xlink="http://www.w3.org/1999/xlink" x="0px" y="0px"
	 width="512px" height="512px" viewBox="0 0 512 512" enable-background="new 0 0 512 512" xml:space="preserve">
<g transform="translate(0.000000,512.000000) scale(0.100000,-0.100000)">
	<path fill="#0164A9" d="M2288.999,5105c-246.001-38.999-491.001-132.998-696.997-267.998C1447.001,4742.001,1420,4716,1420,4670
		c0-30,6.001-42.998,26.001-58.999c41.997-33.003,71.997-26.001,152.998,33.999C1883.999,4856,2205,4961,2565,4961
		c772.002-2.002,1420-533.003,1587.002-1301.001c18.994-91.001,22.002-132.998,22.002-320c0-182.998-3.008-230-22.002-316.001
		c-52.998-246.001-157.002-473.003-309.004-673.003C3822.998,2325,3810,2295,3810,2277.998c0-38.994,40-77.998,80.996-77.998
		c40,0,77.002,37.998,159.004,162.998c120.996,182.998,207.998,396.001,257.998,626.001c24.004,115,26.006,145,27.002,351.001
		c0,196.001-2.998,240-22.998,340C4220,4136,3969.003,4526,3592.998,4797.001c-160,115-400,223.999-610,277.998
		C2802.998,5120,2477.998,5133.999,2288.999,5105z"/>
	<path fill="#73BF43" d="M2375,4647.998c-57.998-31.997-105-95.996-105-145c0-40.996-10-50.996-75-72.998
		c-32.998-11.001-90-35-127.998-52.002c-56.001-25.996-72.002-30-85-20c-65,47.002-149.004,64.004-209.004,41.001
		C1741,4387.001,1545,4197.998,1523.999,4157.998c-30-57.998-15-155.996,37.002-228.999c8.999-11.997,1.997-38.999-31.001-125
		c-22.998-60-46.001-118.999-51.001-131.001C1472.001,3655,1462.998,3650,1435,3650c-72.002,0-147.002-52.998-172.002-122.002
		c-17.998-50.996-16.997-300,2.002-345.996c31.001-72.002,83.999-110,168.999-121.001l50-6.001l31.001-80
		c17.002-43.999,42.002-98.999,53.999-122.998l22.002-43.003L1560,2772.998c-17.002-18.999-36.001-45.996-41.001-60
		c-11.997-32.998-11.997-115,2.002-150c15-40,196.001-222.002,243.999-243.994C1836,2285.996,1911,2297.998,1977.001,2355l40.996,35
		l64.004-27.998c33.999-16.006,86.997-37.002,115.996-46.006c58.003-20,72.002-36.992,72.002-90.996
		c0-69.004,48.999-140,112.998-164.004c37.002-13.994,317.002-13.994,354.004,0C2800.996,2085,2850,2155.996,2850,2225
		c0,54.004,14.004,70.996,72.002,90.996c28.994,9.004,82.002,30,115.996,46.006l64.004,27.998l40.996-35
		c66.006-57.002,141.006-69.004,212.002-35.996c47.998,21.992,229.004,203.994,244.004,243.994c13.994,35,13.994,117.002,1.992,150
		c-5,14.004-23.994,41.001-40.996,60l-30.996,36.001l21.992,43.003C3562.998,2876,3587.998,2931,3605,2975l30.996,80l50,6.001
		c85,11.001,138.008,48.999,169.004,121.001c19.004,45.996,20,295,2.002,345.996c-25,69.004-100,122.002-172.002,122.002
		c-27.998,0-37.002,5-44.004,22.998c-5,12.002-27.998,71.001-50.996,131.001c-32.998,86.001-40,113.003-30.996,125
		c51.992,73.003,66.992,171.001,36.992,228.999c-20.996,40-216.992,229.004-248.994,241.001
		c-60,23.003-144.004,6.001-209.004-41.001c-12.998-8.999-30-5-95,24.004c-42.998,18.999-100.996,42.998-130,51.997
		c-47.998,16.001-52.998,20-58.994,53.999c-10,61.001-14.004,72.002-46.006,108.003c-52.998,60-68.994,63.999-250,63.999
		C2457.998,4660,2387.001,4655,2375,4647.998z M2680,4490c10.996-11.001,20-32.002,20-46.001c0-37.998,39.004-101.997,75.996-125
		c18.008-11.001,57.002-27.998,87.002-37.998C2892.998,4270,2952.001,4245,2995,4225c69.004-32.998,82.998-37.002,140-32.998
		c49.004,2.998,70,10,97.998,30.996c20,15,39.004,27.002,44.004,27.002c15,0,172.998-165,172.998-181.001
		c0-8.999-7.002-21.997-15.996-30c-57.002-46.997-61.006-142.998-11.006-255c19.004-42.998,40-96.997,47.002-118.999
		c34.004-107.002,84.004-157.998,170-171.001c25-3.999,50.996-11.001,57.998-16.997c17.002-13.003,17.002-228.003,0-245
		C3690.996,3225,3670,3220,3650,3220c-80-1.001-152.998-58.999-180-145c-7.002-22.002-30.996-77.998-52.002-123.999
		c-22.002-47.002-42.002-98.003-45-116.001c-7.002-45,12.998-110,47.002-148.999c17.002-18.003,30-40,30-47.002
		C3450,2625,3292.001,2460,3279.003,2460c-4.004,0-26.006,15-48.008,34.004c-80.996,67.998-137.998,70.996-266.992,13.994
		C2920,2489.003,2862.998,2465,2837.001,2455c-52.002-19.004-101.006-55-119.004-89.004c-7.002-10.996-17.002-50-22.998-85.996
		l-10-65h-125h-125l-10,65c-6.001,35.996-16.001,75-22.998,85.996C2383.999,2400,2335,2437.001,2282.998,2455
		c-25.996,10-81.997,32.998-122.998,52.002c-126.001,57.998-190,55-271.001-12.998C1867.001,2475,1845,2460,1842.001,2460
		c-13.003,0-172.002,165-172.002,177.998c0,8.003,12.998,30,30,48.003C1733.999,2725,1753.999,2790,1747.001,2835
		c-3.003,17.998-23.003,68.999-45,116.001c-21.001,46.001-45,101.997-52.002,123.999c-27.002,86.001-100,143.999-180,145
		c-20,0-41.001,5-47.998,12.002c-17.002,16.997-17.002,231.997,0.996,245c6.001,5.996,32.002,12.998,57.002,16.997
		C1566,3507.001,1616,3557.998,1650,3665c7.002,22.002,27.998,76.001,47.002,118.999c50,112.002,45.996,208.003-11.001,255
		c-8.999,8.003-16.001,21.001-16.001,30C1670,4085,1827.001,4250,1842.998,4250c5,0,24.004-12.002,44.004-27.002
		C1915,4202.001,1936,4195,1985,4192.001c57.002-4.004,71.001,0,140,32.998c42.998,20,102.002,45,132.002,56.001
		c30,10,68.999,26.997,86.997,37.998C2381,4342.001,2420,4406,2420,4443.999c0,13.999,8.999,35,20,46.001
		c17.002,17.002,32.998,20,120,20S2662.998,4507.001,2680,4490z"/>
	<path fill="#73BF43" d="M2411,4150c-300-62.998-538.003-286.001-617.002-580c-25-90-25-300-1.001-390
		c96.001-357.002,400-592.002,767.002-592.002c302.998,0,560,155,700,423.003c64.004,122.998,84.004,211.997,84.004,363.999
		c0,151.001-14.004,217.002-75,342.002C3174.003,3915,3002.998,4061,2785,4130C2705.996,4155,2490,4166,2411,4150z M2750,3972.001
		c185-60,347.002-222.002,405.996-407.002c48.008-150,40-308.999-20-442.002l-25.996-55l-62.998,64.004
		c-35,35-92.998,80-130,101.997l-66.006,38.003l21.006,41.997C2905,3376,2907.998,3497.998,2880,3572.001
		c-25.996,70.996-97.002,150-164.004,185.996C2670,3782.001,2655,3785,2560,3785s-110-2.998-156.001-27.002
		c-66.997-35.996-137.998-115-163.999-185.996c-27.998-74.004-25-196.001,7.998-258.003l21.001-41.997l-66.001-38.003
		c-36.997-21.997-95-66.997-130-101.997L2008.999,3070l-25,57.002C1831,3472.001,2031,3880,2402.001,3980
		C2497.001,4006,2654.003,4002.001,2750,3972.001z M2645.996,3611c117.002-71.001,123.008-235,13.008-308.003
		c-135.005-88.999-305.005,29.004-275.005,191.001c8.003,40,46.001,90,91.001,117.002C2516,3637.001,2604.003,3636,2645.996,3611z
		 M2560,3111c30,0,77.998,7.998,107.002,17.998c50,17.002,52.998,17.002,100-1.001c25.996-10,75-37.998,107.998-62.998
		c55.996-42.002,125-117.002,125-136.001c0-11.001-112.998-95-160-118.999c-19.004-10-65.996-27.998-105-40
		c-135-42.998-325-26.001-455,40c-47.002,23.999-160,107.998-160,118.999c0,18.999,68.999,93.999,125,136.001
		c32.998,25,82.002,52.998,107.998,62.998c47.002,18.003,50,18.003,100,1.001C2482.001,3118.999,2530,3111,2560,3111z"/>
	<path fill="#0164A9" d="M1178.999,4467.998C1127.001,4412.001,1010,4230,960,4125
		c-132.998-276.001-187.002-532.998-177.002-842.998C790,3045,823.999,2883.999,911,2665
		c76.997-192.998,176.997-347.998,366.997-567.998c115-134.004,207.002-269.004,286.001-419.004l56.001-105l-35-27.002
		c-42.002-31.992-82.998-108.994-91.001-170.996c-7.998-55,8.999-127.998,42.002-177.002L1560,1160l-25-37.998
		c-56.001-85-56.001-212.002,0-295l25-36.006L1536,755c-32.002-47.002-50-130-42.002-187.002c3.999-25,21.001-68.994,38.999-98.994
		C1570,405.996,1643.999,355.996,1715,345l45-5.996v-47.002c0-95,76.001-207.002,175-260L1985,5h575h575l50,27.002
		c99.004,52.998,175,165,175,260v47.002l45,5.996c70.996,10.996,145,60.996,182.002,124.004c17.998,30,35,73.994,38.994,98.994
		c9.004,57.002-10,137.998-41.992,185l-25,37.002l25,37.002c56.992,82.998,56.992,210,0.996,295L3560,1160l24.004,37.998
		c32.998,49.004,50,122.002,41.992,177.002c-7.998,60-48.994,139.004-85.996,167.002c-17.002,12.002-30,27.002-30,32.998
		c0,22.002,89.004,185,159.004,292.998c81.992,125,90.996,165,45,201.006c-32.002,25-62.002,26.992-93.008,3.994
		c-35-23.994-151.992-208.994-217.998-343.994L3345,1612.002l-782.002-1.006L1781,1610l-62.002,120.996
		c-96.997,191.006-191.997,328.008-353.999,515c-206.001,237.002-330,481.006-397.002,781.006C948.999,3111,946,3155,946,3340
		s2.998,228.999,21.997,316.001c49.004,225,150,451.001,287.002,642.998c41.001,58.003,75,115,75,127.002
		c0,11.997-8.999,32.998-21.001,47.998C1277.998,4513.999,1218.999,4511,1178.999,4467.998z M3405,1435.996
		c40.996-17.998,70.996-70.996,60.996-108.994c-2.998-15-16.992-39.004-30-54.004L3412.001,1245H2560h-852.002l-23.999,27.998
		c-33.999,39.004-40,72.998-20,114.004c31.001,65-3.999,62.002,893.999,62.998C3245,1450,3375.996,1447.998,3405,1435.996z
		 M3410,1065c30-15.996,60-60.996,60-90s-30-74.004-60-90c-25-12.998-110.996-15-620-15h-591.001l-26.001-25.996
		c-20.996-21.006-23.999-32.002-20-62.002c12.002-71.006-28.999-66.006,647.998-72.002l611.006-5l23.994-27.998
		c34.004-39.004,40-72.998,20-114.004C3425,497.998,3457.998,500,2560,500c-891.001,0-862.998-2.002-895,60
		c-22.998,44.004-12.998,92.002,26.001,124.004c27.998,23.994,37.998,25.996,125,25.996c86.997,0,96.997,2.002,118.999,25
		c32.998,32.002,32.998,77.998,0,110c-22.002,22.998-32.002,25-110,25c-97.998,0-136.001,14.004-160,60
		c-18.999,35.996-18.999,52.998,0,90c32.002,62.002-8.999,59.004,892.998,60C3275,1080,3385,1077.998,3410,1065z M3200,305.996
		c0-60.996-62.998-130-135.996-145.996c-51.006-12.002-957.002-12.002-1008.003,0C1982.998,175.996,1920,245,1920,305.996V340h640
		h640V305.996z"/>
</g>
</svg>
