<?xml version="1.0" encoding="utf-8"?>
<!-- Generator: Adobe Illustrator 16.0.0, SVG Export Plug-In . SVG Version: 6.00 Build 0)  -->
<!DOCTYPE svg PUBLIC "-//W3C//DTD SVG 1.1//EN" "http://www.w3.org/Graphics/SVG/1.1/DTD/svg11.dtd">
<svg version="1.1" id="Layer_1" xmlns="http://www.w3.org/2000/svg" xmlns:xlink="http://www.w3.org/1999/xlink" x="0px" y="0px"
	 width="512px" height="512px" viewBox="0 0 512 512" enable-background="new 0 0 512 512" xml:space="preserve">
<g transform="translate(0.000000,512.000000) scale(0.100000,-0.100000)">
	<path fill="#0164A9" d="M257.998,5100L230,5078.999v-1825c0-1268.003,2.998-1831.001,11.001-1844.995
		c16.997-32.002,53.999-41.006,121.997-28.008C522.002,1409.004,638.999,1525,670,1685c7.002,39.004,10,147.002,7.998,302.998
		C675,2230,675,2232.002,651,2250.996c-30,25-76,24.004-101-0.996c-18.999-19.004-20-32.998-20-267.998
		c0-264.004-7.002-314.004-48.999-367.998C457.998,1585,402.002,1540,387.998,1540c-3.999,0-7.998,767.002-7.998,1705
		s2.002,1705,5,1705c3.999,0,17.998-6.001,32.998-13.999c34.004-18.003,64.004-51.001,88.003-96.001
		C523.999,4806,525,4755,527.998,3632.998L530,2460.996L557.998,2440c23.003-19.004,35-20.996,82.002-15
		c68.999,7.998,165,52.002,217.998,99.004c35,31.997,91.001,124.995,106.001,178.994c5,16.001,38.999,17.002,535,17.002h530
		l11.001-42.002C2088.999,2480,2247.998,2327.002,2447.001,2285c85.996-17.998,120.996-17.998,207.998,0
		c155.996,32.998,289.004,135,357.998,275c20,41.001,42.002,93.999,47.998,117.998l10,44.004l172.002-4.004
		c171.006-2.998,172.998-2.998,237.998-35c79.004-38.999,140-101.997,177.002-180.996c27.002-56.006,27.002-61.006,30-297.002
		l2.998-240l-47.998-35c-63.994-47.002-95-105-95-177.998c-0.996-71.006,19.004-117.998,67.998-166.006
		c68.008-65.996,80-66.992,626.006-63.994C4715,1525,4725.996,1525,4765,1547.002c22.002,10.996,52.002,33.994,67.002,50
		c95.996,100.996,68.994,275.996-52.002,345L4740,1965v255c0,275.996-10,367.998-55,525c-122.998,425-457.002,782.998-875,937.998
		c-162.998,60-275.996,79.004-520,86.001L3075,3775l-5,132.002c-2.998,88.999-9.004,135.996-17.998,145
		c-7.002,6.997-39.004,15-70,17.998l-57.002,5l-2.998,72.998l-2.998,72.002h48.994C3042.001,4220,3070,4246,3070,4315v53.999
		l487.998,3.003L4045,4375l57.002,27.998C4207.998,4455,4270,4552.998,4270,4670c0,113.999-60.996,213.999-164.004,267.998
		L4055,4965l-492.002,2.998L3070,4971v52.998c0,42.002-5,57.002-22.998,73.999C3024.003,5120,3022.998,5120,2548.999,5120
		c-463.999,0-476.001,0-496.997-20C2035,5082.998,2030,5067.998,2030,5025V4971l-492.002-3.003L1045,4965l-51.001-27.002
		c-63.999-33.999-127.998-105-147.998-165s-20-146.997,0-205.996c21.997-64.004,91.001-139.004,156.001-168.003L1055,4375
		l487.998-2.998l487.002-3.003V4315c0-68.999,27.998-95,102.002-95H2181l-3.003-72.002L2175,4075l-57.002-5
		c-30.996-2.998-62.998-11.001-70-17.998c-8.999-9.004-15-56.001-17.998-145L2025,3775l-526.001-2.998L972.998,3770L951,3830
		c-28.999,78.999-103.003,158.999-183.003,198.999C733.999,4046,701,4060,692.998,4060c-10.996,0-12.998,63.999-12.998,348.999
		c0,193.003-5,372.002-10,402.002c-31,161.001-166,288.999-326,305C292.998,5121,281.001,5118.999,257.998,5100z M2920,4670v-300
		h-370h-370v300v300h370h370V4670z M2030,4670v-150h-467.998c-436.001,0-470,1.001-502.002,18.999
		c-107.002,56.001-107.002,210,0,263.003c32.002,15.996,77.002,17.998,502.998,17.998H2030V4670z M4040,4802.001
		c107.002-53.003,107.002-207.002,0-263.003C4007.998,4521,3974.003,4520,3537.998,4520H3070v150v150h467.998
		C3962.998,4820,4007.998,4817.998,4040,4802.001z M2770,4145v-75h-220h-220v75v75h220h220V4145z M2917.998,3307.998L2915,2695
		L2885.996,2636C2812.001,2485,2645,2399.004,2487.998,2430c-125,24.004-220,95.996-273.999,206.001L2185,2695l-2.998,612.998
		L2180,3920h370h370L2917.998,3307.998z M742.998,3868.999c21.001-16.997,48.003-50,60-71.997C825,3756,825,3748.999,827.998,3281
		c3.003-508.003,0-548.999-45-613.999C760,2635,705,2590,686,2590c-3.003,0-6.001,295-6.001,655c0,522.998,2.998,655,12.998,655
		C700,3900,722.001,3886,742.998,3868.999z M2027.998,3247.998L2025,2875l-522.002-2.998L980,2870v375v375h525h525
		L2027.998,3247.998z M3517.998,3605C4127.001,3506,4590,2972.998,4590,2369.004V2270l-372.002,2.002L3845,2275l-5.996,95
		c-10,145.996-49.004,237.998-142.002,337.002c-60,62.998-122.998,105.996-202.998,135c-49.004,16.997-90,21.997-239.004,26.997
		L3075,2875l-2.998,372.998L3070,3620h177.002C3357.001,3620,3460,3613.999,3517.998,3605z M4590,2045v-75l-372.002,2.002L3845,1975
		l-2.998,72.998l-2.998,72.002H4215h375V2045z M4720,1800c25-25,25.996-70.996,0.996-100.996L4702.001,1675l-475-2.998l-475-2.998
		l-27.998,23.994c-35,31.006-38.008,82.002-5,109.004c21.992,17.002,51.992,17.998,501.992,17.998
		C4687.001,1820,4700.996,1819.004,4720,1800z"/>
	<path fill="#73BF43" d="M4184.003,1359.004C4157.001,1345,3792.001,715,3762.998,630c-27.002-77.998-30-187.998-7.998-275
		c59.004-225.996,295-382.002,529.004-347.998c301.992,42.998,495,365.996,383.994,640c-35,85-385.996,690.996-410.996,707.998
		C4232.998,1372.002,4214.003,1372.998,4184.003,1359.004z M4382.998,860c157.002-274.004,175-319.004,162.998-417.002
		C4532.998,334.004,4457.001,230,4355,180c-69.004-32.998-197.998-35-267.002-2.998C4025,205.996,3954.003,272.998,3922.001,335
		C3897.998,379.004,3895,395.996,3895,480c0,110.996-9.004,90,195,442.998c92.998,161.006,127.998,212.998,135.996,204.004
		C4232.001,1120,4302.998,1000,4382.998,860z"/>
</g>
</svg>
