<?xml version="1.0" encoding="utf-8"?>
<!-- Generator: Adobe Illustrator 16.0.0, SVG Export Plug-In . SVG Version: 6.00 Build 0)  -->
<!DOCTYPE svg PUBLIC "-//W3C//DTD SVG 1.1//EN" "http://www.w3.org/Graphics/SVG/1.1/DTD/svg11.dtd">
<svg version="1.1" id="Layer_1" xmlns="http://www.w3.org/2000/svg" xmlns:xlink="http://www.w3.org/1999/xlink" x="0px" y="0px"
	 width="512px" height="512px" viewBox="0 0 512 512" enable-background="new 0 0 512 512" xml:space="preserve">
<g transform="translate(0.000000,512.000000) scale(0.100000,-0.100000)">
	<path fill="#73BF43" d="M4085,5106c-309.004-72.002-525-326.001-542.998-640l-5-98.999l-174.004-83.003
		c-95.996-46.001-187.998-92.998-203.994-105c-16.006-11.001-41.006-42.998-54.004-70c-37.998-75-34.004-141.997,20-331.001
		c25-85.996,45-161.997,45-167.998c0-7.002-75.996-10-229.004-10h-227.998l-145.996,60c-92.002,37.998-161.001,60-184.004,60
		c-52.998-1.001-115.996-32.002-143.999-71.001C2215,3615,2215,3613.999,2215,3347.998C2215,3093.999,2216,3080,2236,3053.999
		c36.001-48.999,70-66.997,131.001-71.997c51.997-3.003,70.996,1.997,192.998,52.998l135,57.002l317.998-23.003
		c262.002-18.999,320-26.001,326.006-38.999c3.994-7.998,17.998-52.002,30.996-97.002
		C3407.001,2798.999,3474.003,2741,3592.001,2740c63.994,0,97.998,12.002,267.998,92.998c62.998,31.001,324.004,155,580,276.001
		c530.996,253.003,542.002,260,569.004,381.001c15.996,72.998-4.004,118.999-133.008,305c-65,92.998-120.996,175-122.998,182.002
		C4750,3983.999,4760,4003.999,4775,4021c77.998,93.999,135,266.997,135,412.998c0,113.999-20,198.003-70,301.001
		c-110.996,228.999-332.998,372.002-590,381.001C4182.998,5117.998,4122.998,5115,4085,5106z M4332.001,4958.999
		c145-30,295-141.001,360.996-266.997c89.004-168.003,90-343.003,6.006-510c-18.008-34.004-37.002-61.001-42.002-59.004
		C4650.996,4125,4584.003,4216,4507.998,4326C4310.996,4610,4282.001,4636,4160,4633.999c-60.996-1.001-77.998-6.997-265-96.997
		c-227.998-109.004-220-110-190,17.998C3769.003,4832.998,4055,5016,4332.001,4958.999z M4207.998,4473.999
		c26.006-17.998,106.006-122.998,99.004-130C4300.996,4337.001,3300,3861,3279.003,3855c-14.004-5-21.006,3.999-33.008,46.001
		C3224.003,3975,3225,4032.998,3250,4055c27.998,25,890,435,915,435C4175.996,4490,4195.996,4482.998,4207.998,4473.999z
		 M4597.998,3932.998c109.004-158.999,215-310.996,234.004-340c38.994-56.997,40.996-87.998,3.994-120.996
		c-37.998-34.004-1205-582.002-1240-582.002c-17.998,0-40,6.001-48.994,12.998c-17.002,12.002-241.006,769.004-234.004,790
		c2.002,7.002,975,480,1084.004,526.001C4397.998,4220,4487.998,4091,4597.998,3932.998z M2500,3525l105-42.998v-133.003V3216
		l-100-42.002C2450,3151,2395,3131,2382.998,3131L2360,3130v220c0,202.998,1.001,220,17.998,220
		C2387.001,3568.999,2442.001,3550,2500,3525z M3239.003,3382.998C3250,3345,3265.996,3291,3274.003,3261
		c8.994-30,13.994-56.001,11.992-58.003c-3.994-3.999-365.996,21.001-472.998,33.003l-52.998,5v105V3450h230h229.004
		L3239.003,3382.998z"/>
	<path fill="#73BF43" d="M1510,3493.999C1402.998,3465,1311,3388.999,1262.001,3290c-25-51.001-27.002-66.001-30-207.002
		C1227.998,2941,1228.999,2931,1248.999,2911C1271,2888.999,1310,2883.999,1340,2900c28.999,15,40,65,40,182.002
		c0,116.997,8.999,147.998,58.999,200.996c52.002,57.002,95,71.001,226.001,75c103.999,3.003,122.998,7.002,142.998,25
		c27.002,25,29.004,67.002,3.003,98.003c-18.003,21.997-27.002,23.999-133.003,26.001
		C1602.001,3508.999,1547.001,3505,1510,3493.999z"/>
	<path fill="#73BF43" d="M1705,3221c-22.002-10-52.002-31.001-67.002-47.002C1585,3117.001,1580,3088.999,1580,2860
		c0-130,3.999-218.999,11.001-231.001C1616,2581,1696,2585,1718.999,2636c7.002,16.001,11.001,96.997,11.001,222.998
		C1730,3097.998,1726,3090,1847.998,3090c45,0,92.002,5,106.001,11.001c51.001,22.998,55,102.998,7.002,127.998
		C1926,3247.998,1751,3242.001,1705,3221z"/>
	<path fill="#73BF43" d="M1247.001,2682.001c-14.004-16.001-17.002-43.003-17.002-175c0-144.004,2.002-159.004,20-177.002
		c25-25,73.999-25.996,98.999-0.996c28.003,27.998,33.999,71.992,30,210C1376,2638.999,1372.001,2661,1356,2678.999
		C1331,2706,1270,2707.998,1247.001,2682.001z"/>
	<path fill="#0164A9" d="M96.001,2280c-37.002-12.002-66.001-37.998-82.002-77.002c-21.001-50-17.998-357.998,3.999-443.994
		c33.003-125,124.004-239.004,236.001-296.006C328.999,1425,350,1420,525,1402.002L685,1385l2.998-272.998L690,840H421.001
		c-166.001,0-280-4.004-298.003-10.996c-40-15-81.997-57.002-103.999-104.004C2.002,689.004,0,657.002,0,420
		s2.002-269.004,18.999-305C41.001,67.002,72.998,35.996,122.002,15C155,2.002,416.001,0,2560,0c2144.004,0,2405,2.002,2437.998,15
		c49.004,20.996,81.006,52.002,102.998,100c17.002,35.996,19.004,67.998,19.004,305s-2.002,269.004-19.004,305
		c-21.992,47.002-63.994,89.004-103.994,104.004C4980,835.996,4865,840,4699.003,840H4430v77.998v79.004l160,17.002
		c87.998,8.994,182.998,23.994,212.002,33.994c120,37.998,240,154.004,288.994,279.004c21.006,52.002,23.008,77.998,27.002,258.994
		c4.004,226.006-2.002,258.008-60,294.004c-37.002,24.004-80.996,22.998-320.996-5c-122.002-14.004-235-54.004-272.998-95.996
		c-25-27.002-34.004-23.008-34.004,15c0,143.994-85.996,305-205.996,385c-81.006,52.998-144.004,70-337.002,90.996
		c-177.002,19.004-182.002,19.004-222.998,0C3595,2240,3590,2220.996,3590,1995.996c0-161.992,2.998-203.994,19.004-255
		c25.996-83.994,58.994-136.992,127.998-201.992C3835,1445,3905,1420,4120,1400c69.004-5.996,132.998-14.004,142.998-15.996
		c16.006-5,17.002-24.004,15-272.002L4275,845l-292.998-5c-276.006-5-294.004-5.996-307.998-24.004
		c-20-27.998-17.002-68.994,5-96.992L3697.998,695l622.998-2.998c434.004-2.002,626.006-6.006,636.006-12.998
		c17.998-16.006,18.994-499.004,0.996-517.002C4940.996,145,178.999,145,162.002,162.002C143.999,180,145,662.998,162.998,679.004
		c10,7.998,463.003,11.992,1636,12.998L3422.001,695l18.994,24.004c23.008,27.998,24.004,67.998,3.008,95.996
		c-14.004,19.004-30,20-412.002,25L2635,845l-2.998,72.998c-2.002,52.002,0.996,74.004,10,77.002c7.002,2.002,80.996,10.996,165,20
		c82.998,9.004,175.996,24.004,207.002,35c150.996,52.002,276.992,200.996,306.992,364.004c6.006,32.998,9.004,133.994,7.002,230
		c-2.998,191.992-8.994,210-75,240.996c-33.994,17.002-45.996,17.002-212.002,0c-197.998-19.004-272.998-39.004-346.992-89.004
		l-51.006-35l-7.002,65C2617.001,2012.002,2501,2165.996,2331,2230c-68.003,25.996-397.002,62.002-445,49.004
		c-43.003-12.002-76.001-48.008-87.002-96.006c-11.997-50.996-11.001-280.996,1.001-367.998C1826,1640.996,1951,1487.998,2110,1435
		c27.998-9.004,122.002-25,207.998-34.004L2475,1384.004l2.998-272.002L2480,840h-820H840v79.004v77.998l127.998,12.002
		c236.001,22.998,320,50.996,413.003,137.998c60,55.996,102.998,122.002,128.999,197.998c17.998,50.996,20,84.004,20,265.996
		v208.008l-31.001,35C1480,1875.996,1456,1892.002,1435,1895.996c-47.998,9.004-337.998-22.998-415-45.996
		c-36.001-10.996-91.001-37.002-122.002-57.998l-55.996-40l-4.004,82.002c-5.996,106.992-43.999,192.998-125,276.992
		C611.001,2217.998,551.001,2242.998,342.002,2265c-81.001,7.998-163.003,17.002-182.002,19.004
		C141.001,2285.996,112.002,2284.004,96.001,2280z M338.999,2115c150-17.002,205-39.004,266.001-105.996
		c65-73.008,78.999-111.006,82.998-239.004L691,1655l-52.001,55c-28.999,30-76.997,80.996-106.997,112.998
		c-40,42.002-61.001,57.002-81.001,57.002c-56.001,0-93.999-55.996-70-102.998c6.997-12.002,51.997-65,100-117.998
		C530,1605.996,570,1559.004,570,1555c0-12.998-163.999,7.002-217.002,27.002c-63.999,23.994-131.997,87.998-168.999,158.994
		c-26.997,52.002-27.998,61.006-31.997,222.002L147.998,2130h28.003C192.002,2130,265,2122.998,338.999,2115z M2131,2115.996
		c150-16.992,202.998-40,271.997-115.996c61.001-67.002,77.002-119.004,77.002-244.004L2478.999,1655l-36.001,40
		c-165.996,182.998-168.999,185-200.996,185c-42.002,0-72.002-30.996-72.002-72.998c0-27.998,16.001-51.006,102.002-147.002
		l101.997-112.998l-80,7.002c-125,10.996-175,28.994-237.998,86.992c-33.003,30-66.001,73.008-82.002,106.006
		c-26.001,52.002-27.998,65.996-31.997,218.994l-5,164.004H1971C1990,2130,2062.001,2122.998,2131,2115.996z M3922.998,2115.996
		c145-16.992,197.002-35.996,260-98.994c66.006-66.006,91.006-134.004,95-262.002l4.004-110l-62.998,70
		c-125,137.998-154.004,165-184.004,165c-37.998,0-75-35.996-75-70.996c0-28.008,5.996-36.006,162.998-215l39.004-44.004h-29.004
		c-72.998,0.996-177.002,22.002-220,44.004c-62.998,31.992-115.996,87.998-147.002,155.996
		c-23.994,52.002-25.996,64.004-25.996,217.998V2130h27.998C3782.998,2130,3852.998,2122.998,3922.998,2115.996z M1380,1582.002
		c0-167.998,0-169.004-30-230c-35-67.998-92.002-125-155-152.998c-36.001-16.006-222.002-45-231.001-36.006
		c-1.997,2.002,41.001,54.004,96.001,115c83.999,95,100,117.998,100,146.006c0,40.996-28.999,68.994-72.002,68.994
		c-31.997,0-33.999-2.002-185.996-165.996C872.998,1295.996,846,1270,842.998,1270c-2.998,0-2.998,47.998-0.996,107.998
		c3.999,82.998,10,117.002,26.997,152.998c35,73.008,86.001,125,153.999,158.008c61.001,30,80,32.998,345,60
		C1377.001,1750,1380,1710,1380,1582.002z M3177.998,1582.998c-3.994-192.002-13.994-227.002-87.998-307.002
		c-59.004-63.994-125-92.998-239.004-105.996c-51.992-5.996-95-9.004-95.996-7.998c-2.002,2.002,40,50,92.002,107.998
		s98.994,115.996,103.994,127.998c20,51.006-41.992,112.998-92.998,92.998c-13.994-5-67.002-56.992-118.994-115
		c-51.006-57.998-98.008-105.996-103.008-105.996s-5.996,44.004-2.998,105c7.002,125,32.002,190,96.006,254.004
		c66.992,66.992,108.994,81.992,270.996,101.992c80,9.004,152.998,17.002,164.004,18.008
		C3180.996,1750,3182.001,1740.996,3177.998,1582.998z M4967.998,1577.998c-2.998-163.994-3.994-175.996-30-222.998
		c-65-125-148.994-170.996-337.002-190l-63.994-5.996L4634.003,1265c52.998,57.998,101.992,115.996,107.998,130
		c25,55-40,119.004-96.006,94.004c-11.992-6.006-65-58.008-116.992-117.002l-94.004-105l-2.998,97.998
		c-4.004,132.998,12.998,180,92.998,260.996c80.996,82.002,120.996,94.004,432.998,123.008
		C4969.003,1750,4970.996,1717.002,4967.998,1577.998z"/>
	<path fill="#0164A9" d="M1202.998,490c-25.996-10.996-42.998-40-42.998-74.004c0-62.998,88.999-90,128.999-40
		c12.002,15,21.001,33.008,21.001,40c0,26.006-22.998,62.002-47.002,73.008C1235,502.002,1232.998,502.002,1202.998,490z"/>
	<path fill="#0164A9" d="M3102.998,490c-25.996-10.996-42.998-40-42.998-74.004c0-62.998,89.004-90,129.004-40
		c11.992,15,20.996,33.008,20.996,40c0,26.006-22.998,62.002-47.002,73.008C3135,502.002,3132.998,502.002,3102.998,490z"/>
	<path fill="#0164A9" d="M1916,439.004c-33.999-27.002-36.001-77.002-3.003-107.002C1975,274.004,2065,342.998,2026,419.004
		C2002.001,465,1958.999,472.998,1916,439.004z"/>
	<path fill="#0164A9" d="M3715.996,439.004c-33.994-27.002-35.996-77.002-2.998-107.002C3775,274.004,3865,342.998,3825.996,419.004
		C3802.001,465,3759.003,472.998,3715.996,439.004z"/>
</g>
</svg>
